<svg height="369.106735" viewBox="0 0 733.93 1000" width="270.924344" xmlns="http://www.w3.org/2000/svg"><g fill-rule="evenodd"><path d="m71.667294 952.4762c3.772203 7.5444-7.544407 11.31423 0 16.97222-1.886403 3.7722-1.886403 9.43019-5.656211 13.20239-3.774001 0-7.546204 1.88642-11.316008 1.88642-1.886403-3.7722-7.544407-3.7722-7.544407-9.43082 5.658004-5.65799 1.888196-16.97222 9.427813-20.74443 1.886398-1.88578 3.774598-5.66037 5.658601-5.66037 3.774001 0 9.430212-1.8834 9.430212 3.77459zm275.351076-56.57946c3.77221 0 11.31661 0 13.2024 7.54441 3.7722 9.42543 16.97703 16.97222 24.51901 24.51604 3.7722 0 5.65803 7.54441 9.43024 7.54441 1.88399 3.7722-1.88822 7.5444-3.77221 11.31661 0 1.8834 5.6562 5.65799 5.6562 9.43019-11.31423 3.7722-7.54203 20.7468-20.74681 16.97222-3.76744 1.88579-9.42781 5.65799-15.08643 1.88579h-1.88579l-1.88641 1.88879c-20.74622-16.9746-33.94682-37.7214-47.14926-58.46825-1.88579-5.66037 5.65861-9.42781 3.77462-13.20002 3.76978-5.66037 9.42782-11.31661 13.20002-15.08881 5.65858 3.7722 16.97698-3.77157 20.74442 5.65862zm284.78125 1.88579c7.54801 7.5444 13.20303 13.20244 24.51901 16.97464 9.42903 5.6562 16.97703 15.08639 26.40003 20.74443 3.78002 3.7722 9.435 7.5444 7.548 13.20001 5.65503 1.8888 9.42903 7.54679 16.97106 7.54679 1.887 1.88579 5.66095 7.54203 9.43495 5.65799 5.65503 1.88404 13.19705 3.7722 16.97105 7.54203-1.887 7.54678 3.774 15.08881-3.774 20.7468-3.774 1.88341-7.54202 0-11.31602 1.88341-1.88103-5.65561-11.31598-1.88341-13.19701-7.5414-3.774-1.88642-9.435 0-11.31603-3.7722 0-15.08644-18.86398-7.54441-26.406-15.08644-18.85801-20.7468-41.49006-32.06283-64.12207-50.92142-3.774-5.65803 3.774-11.31602-1.887-15.09061 0-3.76982 0-11.31423 5.661-7.54202 3.76803 0 5.65503-3.77221 7.54203-5.65799 1.88098 5.65799 9.42898 9.43019 16.971 11.31598zm-132.01813-69.77947c3.774 9.42781 0 24.51662 9.42903 32.06044 3.774 7.54203 5.661 15.08644 9.42898 24.51663-7.53601 5.65799 5.661 11.31661 5.661 16.97222-1.887 5.65799 0 9.43262 5.65503 13.20482 0 5.6562 0 13.20002 1.89297 18.85859 1.88103 7.54383 13.19705 7.54383 11.31005 16.97465 1.887 3.77157 0 5.65799 1.887 9.43019-11.31602 1.88579-1.887 18.85801-15.09002 15.08581-1.88103 0-7.54203-3.76978-11.31603 0-5.65498-1.88579-11.31001-3.76978-18.85801-1.88579-5.65502-5.65799-13.197-11.31423-13.197-20.74442-1.89302-1.88579-5.661-5.65799-9.435-1.88579-1.88103 3.77157-1.88103 7.54378-7.54203 5.65799-3.774 0-13.20303-1.88642-16.97703-1.88642 1.887-9.43019 0-22.63259 11.32201-28.29062 3.76802 0 11.31602 3.7722 15.08405-1.88817-3.76803-13.19822-3.76803-30.17287-11.31603-41.48885-9.42903 5.65799-13.20303 18.85801-16.97101 26.4048-1.88698 11.31423-9.43498 18.85805-16.977 26.40246-1.887 5.65799-3.76803 11.31661-3.76803 16.9746-3.774 7.5444-7.548 20.74442-15.08998 22.63021-1.887 0-5.65804 0-7.54683-3.76978l-1.88098 1.88399c-7.54684-16.97222 11.31481-30.17462 11.31481-49.03743 5.65498-13.19822 16.97101-22.63084 18.85801-37.71664 3.774-5.65862 5.65502-15.08882 13.20302-22.63084 1.88698-5.65561 3.76796-15.09061 7.54196-22.63263l26.40606-37.71903c1.88098 0 5.65498-1.88821 9.42898 0 0 7.54441 7.54202 15.08643 7.54202 24.51901zm-277.23625-28.28883c3.7722 1.88161-1.8882 3.76982 0 5.65624 3.7722 5.65799 0 11.31598 3.7722 15.0858 1.8858 11.31661 7.54201 22.63263 13.20002 32.06341 1.8882 5.66042 1.8882 11.31603 7.5468 15.08585 0 9.43019 3.76981 15.08881 3.76981 22.63259 1.8882 1.88642 5.658 3.7722 1.8882 5.65862 7.542 7.54441 11.31419 16.96984 13.1976 26.40241-3.76979 3.77221-11.3136 3.77221-9.4278 11.31661 1.8882 7.54383 11.31659 1.88584 7.54439 11.31603 1.88341 1.88642 0 5.65862 3.7722 7.54441-3.7722 13.20239-16.97459 15.08643-26.403 16.97222l-7.54621 3.7722c-7.54201-9.43019-11.31421-18.85864-11.31421-28.28883-1.8882-7.54441-11.31661-5.65799-16.97462-5.65799-9.4302 3.7722-20.74442 0-32.06043-1.88642 0-3.77162 0-11.31602 1.8858-15.08823 5.65801-9.43257 16.97462-5.65561 26.40243-7.54198 1.8864 3.76978 7.54441 7.54198 13.20241 5.6562 5.65621-3.76983-1.8858-7.54679 0-13.20303l-1.8858-1.88341c-3.7722-13.20239-7.54441-30.17699-9.43021-45.26343-1.8864-1.8834-5.6586 0-5.6586 1.88399-7.54201 3.77221-5.65561 11.31661-11.31362 16.97465 0 1.88579-1.8864 5.65799-3.7722 5.65799-15.08881 28.28645-33.94923 54.69367-49.03565 81.09846-1.8834 1.88404-5.658 1.88404-7.54201 0-3.77639-9.43019 1.88401-18.86038 1.88401-28.29121 11.31661-16.97401 26.40482-33.94623 35.83263-50.92083 3.77221-15.08882 16.97462-26.40305 24.51902-41.49127 1.88581-9.43019 11.31422-18.86102 13.20002-30.17462 3.7722-3.7722 9.43021-5.65862 9.43021-13.20482 3.7722 1.88821 7.5444-1.88161 11.31661-1.88161zm79.21029-24.5208c-1.88642 13.20482 3.77157 28.29062-3.76982 43.37705 0 1.88579 0 3.77459-1.8888 5.66038 1.8888 1.8834 0 5.65561 3.7722 7.54202 11.31661 0 13.20482-13.2024 22.63264-16.97222 9.43078-7.5444 20.74918-16.9746 30.17461-24.519 9.43083-1.88341 16.9746-5.65561 24.52144-3.77221 5.65561 3.77221 9.42781 7.54679 15.084 3.77221 5.65799 0 1.88822 5.65799 5.65799 9.43257 5.66042 1.88161 3.77221 7.54203 5.66042 9.42781-3.7722 3.77221-7.5462 7.54441-7.5462 13.20303-11.31423 11.3136-20.74681 20.74383-32.06104 26.40003-18.858 13.20239-33.94924 28.29062-54.69366 39.60723-3.77221-1.88578-9.4302 0-11.3136 5.65799 0 5.65624-3.77221 13.20002 1.8834 18.85626 0 3.77696 0 5.66037-1.8834 7.54679-1.8888 11.31602-1.8888 22.63263 1.8834 33.94861 0 9.42845-15.08823 9.42845-11.31423 20.74443 0 1.88879-1.88578 5.65862-3.774 5.65862-9.42839-1.88642-5.65619-13.2024-7.54198-18.85864 1.88579-28.29063 3.77221-52.80725 0-79.21205 1.88579-9.43024 3.77221-20.74685 0-30.17466 0-9.43078-1.88641-18.86101 0-26.40542 0-13.20001-1.88641-24.51842-1.88641-37.71601 5.65862-5.65862 1.88641-15.08881 9.42839-18.8634 5.65804 0 13.20483-3.76744 16.97465 5.65858zm301.75706-16.97222c-1.887 3.77162-3.774 11.31364-1.887 15.08823 3.774 5.65561 0 7.54202 0 15.08881 3.774 9.42781-3.774 7.5414 0 16.97222-3.774 16.9746-1.887 35.83261-7.54202 50.92083 1.88102 45.26105-1.89298 90.52691-3.774 135.78733-3.774 3.77462-24.51901 9.43267-30.17404 7.54683-1.887-11.31661 0-24.51905-3.774-37.71907 1.887-15.08818 1.887-28.29063 5.661-45.26285-1.887-11.31661-1.887-24.519 3.76803-35.83561 0-3.77221 1.887-7.54383 0-11.3136-1.887-3.77463-3.76803-1.8888-7.54203-1.8888 0-20.74442 3.774-41.49127 1.887-60.34927 5.65503-15.08823 0-18.85801 3.76803-33.94682 7.548-5.65799 24.51901-22.63264 37.72203-16.9746 0 0 1.887 0 1.887 1.88637zm-35.83503-69.78244 1.887 1.88637c5.65502-5.65857 13.20303 3.7722 18.85801 0 11.31602 3.7722 18.86402 5.65804 28.28703 7.5462 18.86402 9.42845 33.95405 22.63084 47.15106 39.60306 1.887 9.4302 13.20302 13.2024 13.20302 22.63264 7.54198 5.66037 9.435 15.08639 9.435 24.51901 5.65498 3.7722-1.89302 11.3136 1.88098 15.08818 0 0 0 0 0-1.88817 0 3.76978-9.42898 0-11.31598 5.65799 0 20.74681-15.08405 35.83324-16.97702 56.57945-7.54203 9.43083-13.19701 28.28883-28.28704 30.17462-5.65502-13.2024 0-22.63259-3.76802-35.83261 5.65502-3.7722 9.42902-11.31661 16.97105-9.43023l1.887-3.7722c3.774-26.40242-1.887-41.48885-9.42903-64.12382-20.75102-15.08643-39.60903-37.72145-66.00906-43.37706-7.548-1.88399-22.63201 0-24.51901-11.31423-1.887-1.88579-5.661-3.77458-7.54202-7.54679 3.76802-5.65561 3.76802-22.62783 13.197-24.51604 3.774 1.88821 9.435-5.65857 15.09003-1.88637zm-528.073696-7.54203c11.319008 3.76983 24.519023 3.76983 35.835633 9.4284 5.658004 0 7.543805 3.7722 11.316008 7.5462-1.8858 5.65382 3.772204 5.65382 7.544407 5.65382 11.314218 15.08823 24.516628 24.52323 35.832638 37.72145 0 9.43019 11.31421 15.08823 9.43081 24.5208 0 1.88404-1.8864 1.88404-1.8864 5.65624l1.8864 1.88579c1.8834 18.85859 7.54141 33.94682 5.658 54.69362 3.76981 3.76982-1.8864 7.54203 0 11.31423 0 3.77161-1.8864 9.42781 0 13.20239 0 5.66042-9.43021 11.31603-1.8864 16.97465-3.7716 7.54139-11.31361 15.0858-9.43021 22.63021-3.7722 3.7722-3.7722 7.54202-5.658 9.42781-5.6604 11.31423-16.97462 28.29121-24.51663 37.72145-1.8858 5.65799-11.316009 13.2024-18.860415 15.08818-3.772204-5.66037-3.772204-11.31598-3.772204-16.9746 3.772204-16.97401 15.088212-35.83503 26.404819-49.03505 3.76981-15.08823-3.7722-28.28883-3.7722-45.26343-1.8858-16.97464 0-30.17465-1.8858-47.14925-1.888799-7.5414-5.658607-3.77162-7.544408-13.20002-3.772203-18.86281-16.974614-22.63259-28.288829-37.7214-1.888196 0-1.888196 0-3.774001 0-7.542007 9.43077-3.772203 3.7722-5.658601 15.08881 3.774598 1.88579-1.883406 3.76978 0 7.54441-1.883406 22.63021 0 47.14921-3.769809 67.89364 3.769809 5.65799-1.8858 7.54381 0 13.20001 0 13.20239 1.886403 28.29062 0 39.60723 1.886403 11.31423-3.769808 18.85801 0 30.17462-3.769808 5.65624-1.8858 9.43024-1.8858 15.08881-3.772204 7.54383-3.772204 18.86044-11.319008 22.63264-3.769804 3.7722-16.972215 7.54203-20.742023 11.31423v-1.88404c-1.8882 1.88404-1.8882 1.88404-3.774001 1.88404 0-20.74442 0-43.37944 3.774001-62.2357-1.8882-7.5444 1.884003-15.08881 7.542007-18.86038 0-3.77221 1.886403-9.43083-3.772199-11.31661-5.658008 3.7722-5.658008-3.77221-7.543809-7.54441 5.658004-7.54203-5.6562066-15.08585 1.885801-20.74442-1.885801-7.54382 0-13.20244 0-20.74685 0-9.42781 3.772203-16.97222 0-24.51842 1.8882-24.51658-3.769804-35.82843 1.8882-60.34923l20.742023-5.65862-5.655609-5.65799-30.1770249-11.31661c-5.658004-3.77221-3.76980862-20.74205-1.8864027-24.51605 1.8864027-7.54198 11.3190096-9.43077 11.3190096-16.9746 5.658004 0 16.974614-9.43082 20.744418 1.88341z"/><path d="m431.88545 592.25446c-1.88103 3.77458-5.65503 9.43019-9.42903 7.5444-13.20002 0-15.08881-13.20302-20.74442-22.63322 0-7.54202 7.5444-13.20001 15.08944-13.20001 5.65498 7.5444 18.85801 15.08881 15.08401 28.28883zm218.7782-90.52871c-1.887 13.20483-1.887 22.63502 3.76798 32.06283-3.76798 9.43262-11.31598 18.85864-20.74501 24.51906-24.519 13.20239-33.94803 37.7214-54.69304 56.58183-15.09002-5.66041-33.94803 20.74204-37.72203-5.66041 0-11.31661 15.08998-16.9746 20.75098-26.403 11.31603-28.29063 39.60306-45.26285 43.37706-77.32631 9.42903-11.31598 22.63201-33.94201 39.60306-35.83503 5.661 9.42903 7.54198 22.63264 5.661 32.06103zm-75.44407-60.34806c-3.76802 20.74505 9.43501 52.80608-11.31602 67.89427 9.435 20.74685-11.31603 35.83323-22.63201 50.92384-20.74505 15.08405-16.97105 41.48885-37.71606 54.69367v3.76982c-24.519 24.51663-54.69302 45.26285-73.55107 69.77948-7.548-1.88341-16.97698 1.88637-18.86218-7.54203 9.4332-33.94682 50.9232-43.37944 64.12622-77.32626 22.62603-30.17466 39.60306-58.46529 60.34807-86.75412-3.76803-26.40479 20.745-41.49064 20.745-66.00965l13.20303-15.084zm-462.06165-1.887c5.65861 20.74505 7.54681 43.37885 7.54681 64.12328 15.08641 9.43019 3.7698 35.83265 22.63022 41.49122-9.43021 18.86044 1.8864 33.94925 11.31661 50.92385-5.6604 26.40003 16.97222 41.48826 22.63022 64.12148 7.54441 9.42782 7.54441 22.63021 7.54441 35.83266-5.65561 5.65799-15.08821-1.88584-20.74682 0 1.8864-11.31661-11.31601-16.97703-15.08821-24.51663-11.31421-24.51663-15.08642-50.92147-35.83324-71.66769-18.858018-39.60306-30.174628-81.09608-33.946831-128.24112-1.885801-11.322 0-22.63205 7.544406-30.18005 5.658606-9.42898 20.746815-7.548 26.402425-1.887zm413.02957-26.40601c0 33.95401-16.97698 69.78486-18.85801 107.50389-30.18 3.7722-24.519 37.71907-41.49603 52.80725 1.887 13.20002-3.76802 24.51663-13.20303 30.17466-22.62601-5.65803 1.887-24.51604-1.88098-39.60485 18.85801-37.72145 3.76798-82.98488 28.28704-120.70094-1.887-15.08998 9.42898-28.29301 11.31598-45.26401 7.54202-1.88701 15.09002-3.77401 24.51905 0 1.887 5.65498 5.65498 11.31598 11.31598 15.084zm-333.81689-3.76802c7.54201 11.31602-3.77221 22.63205 5.65561 33.94803 1.8864 15.08405 13.20241 32.06103 1.8864 45.26284 3.7722 30.17525 24.51842 54.69367 28.29062 84.86829 18.86102 22.63322 20.74442 52.80788 30.17703 81.09609-1.8882 3.7722-11.31601 1.88879-15.09061 0-20.74442-9.4302-7.54201-37.72083-20.74442-54.69305-20.74682-15.08881-20.74682-39.60306-24.51902-60.35224-16.97222-11.31122-20.74443-32.06045-22.63023-50.91909-18.85802-18.86281-24.51662-47.14984-24.51662-73.55585 15.08641-7.54202 3.7722-33.94803 26.40242-28.28703 5.65861 7.54202 24.51663 9.42902 15.08882 22.63201zm43.37704-39.60904c11.31661 30.18006 9.42781 64.12207 28.28881 90.52812 13.20244 20.74501 11.31603 47.15043 26.40246 66.00844 11.31661 20.74685 5.65799 43.37944 22.63501 60.35166 5.65382 15.08881 24.51663 24.51662 24.51663 41.49127 7.54441 7.5444 3.76978 18.86281 13.20002 24.51901-5.65561 35.83265 33.9492 49.03505 50.92142 75.44227-15.08639 9.42601-26.4048-3.77638-41.49123-1.88822-24.51842-11.31899-7.54441-41.4936-35.83265-50.92142-18.86102-7.54683-28.29121-33.94686-45.26343-47.15164 0-9.42782-1.88579-22.63026-7.54441-30.17466-11.31601-9.42782-13.20001-22.6326-20.74621-33.94682-1.88641-77.32626-28.28883-143.33295-39.60544-218.77099 0-7.54801 9.42841-11.31603 16.97461-7.54801l3.77221 3.77401zm260.26582-64.12202c3.76802 16.97703-15.08998 26.40601-20.74501 39.60904-3.774 20.73903-9.435 41.49001-18.86403 58.46102 1.887 18.86402-7.54196 33.94803-9.42896 52.80608-16.97105 15.096-22.62603 41.49424-47.14746 47.15223-16.9746-7.54441-20.74622-26.40125-16.9746-45.26523 7.5444-24.51905 35.83503-33.94206 41.49603-60.34806 11.31001-22.63206 35.829-39.60904 33.94199-67.89607 15.08406-9.42898 5.66101-28.28703 16.97703-37.71601 0-15.09004 9.42301-16.97704 20.74501-16.97704 5.65502 7.54201-1.887 20.74502 0 30.17404zm-264.03802-45.26405c30.17463 15.09001 33.94442 50.92505 62.23805 71.67006-11.31899 24.51905 26.40242 28.28703 15.08581 52.80604 13.20244 22.63201 22.63322 45.26406 33.95162 67.89606 7.53965 22.63201 24.51425 43.37585 33.94687 66.00907 11.31418 13.2024 26.40241 30.17704 18.85621 47.14926l-1.88399 3.77158c-33.94925-16.9764-33.94925-50.92084-62.23749-69.78186-9.43078-20.74801-20.74681-39.60602-37.71903-56.57707-16.9746-47.15102-41.49123-94.30203-60.35405-141.44711-22.63082-16.97701-35.83323-45.26404-26.40243-73.55706 18.86042-3.76801 15.08822 22.63202 24.51843 32.06103zm201.797-82.98008c3.774 1.887 7.54202 3.76801 9.42902 5.65501-1.887 7.548 0 15.09001 1.89298 18.86401-22.63803-3.774-35.83805 15.08402-54.69664 22.63202-11.31602 3.76801-26.40484 1.887-37.72145 11.31601-30.17461 3.76801-56.57945 0-84.8677-11.31601-9.42839 5.65501-15.08639-11.31601-24.519-13.20301-16.97222 1.887-30.17463-5.661-43.37704-11.31601-1.8864-5.65501-1.8864-13.20301 0-16.97701 26.40482-16.97103 60.35165 5.661 84.86826-11.31601 45.26285-1.88101 99.9589 11.31601 148.99157 5.661zm47.15104-9.42901c11.31598 30.17403-15.09003 50.91905-16.97105 77.32507-9.43501 22.63202-18.85799 45.25805-26.40599 67.89607-13.19701 13.19701-18.85801 32.06104-30.17884 47.14504l-35.82785 20.74501c-20.74918-20.74501-41.49603 33.94803-49.03801-3.774 11.31661-15.08401 33.94682-28.28699 39.60544-47.14504 30.17461-32.06103 66.01023-67.89606 90.52324-103.7251 0-20.75101 15.09003-35.83503 11.32201-56.58005 5.65502-3.77401 11.31602-1.887 16.97105-1.887zm-88.64169-156.537146c3.77221 3.774 11.31841 5.65501 16.9746 3.774 16.97402 13.19702 41.49305 22.63202 52.80904 45.25805h-3.77401c-22.63198-1.88101-43.37699 0-66.00963-7.54201-22.63084 5.661-52.80545-1.887-67.89368 18.85802 24.51662 7.548 52.80968 0 75.43989 15.09001 22.62841-3.774 32.05744 30.174026 54.68942 22.632016 1.887 7.54201 7.54801 16.97103 1.887 22.63203-13.20296 0-30.17401 0-43.37699-3.76802-7.54081 5.65502-18.85742-1.89298-28.28766 3.76802-16.9746 7.542-39.60481 13.203-60.35166 11.316-43.37701 3.774-81.09846 11.31602-122.5897 15.09002-3.7722 3.768-9.42781 9.42901-13.20002 3.768-7.5444-11.316-3.7722-24.51902-3.7722-35.83502 9.43021-7.54202 22.63082-1.88102 32.06103-1.88102 16.97222-5.661 33.94684-16.97701 49.03264-9.435 18.86101-5.65501 41.49365-1.88101 56.58188-9.42302 1.88637-3.774-3.774-3.774-5.65804-7.547996-26.40479-7.54201-58.46344 1.886996-84.86826-7.54201-3.77221-9.42901-13.20242-5.661-18.86042-11.31601 1.8858-7.548-3.7722-18.86401 3.7722-24.51902 35.83504-3.774 64.12388-1.887 96.1867-15.08402 1.88399-3.774 1.88399-5.661-1.88821-7.548-15.08881-7.54201-33.94682 7.548-49.03564-3.774-1.88581-11.31601 11.31662-13.19702 18.86103-16.97102 30.17461-15.0840205 64.12386-13.2030105 98.07068-5.6610005 3.77162 3.774 11.31602-1.88101 13.20001 5.6610005"/></g></svg>