<svg width="500" height="42" version="1.1" viewBox="0 0 500 42" xmlns="http://www.w3.org/2000/svg">
 <path d="m98.194 41.679 41.31-41.277h25.727l-41.418 41.277zm44.073-3.8972c0.32113-0.14273 0.54763-0.33511 0.6795-0.57248 0.13188-0.23582 0.1955-0.59575 0.1955-1.0813 0-0.48715-0.16292-0.84863-0.48871-1.0938-0.3258-0.24202-0.81449-0.36148-1.4645-0.36148h-1.8865v5.0111h0.99291v-1.7686h1.0131l0.85637 1.7686h1.0441l-0.94326-1.902zm-0.30874-0.84553c-0.13497 0.13342-0.35839 0.20168-0.66712 0.20168h-1.0115v-1.6911h0.82226c0.70901 0 1.0643 0.28391 1.0643 0.84398 0 0.29787-0.0684 0.51352-0.20789 0.64539zm-100.27-13.016c7.2188-6.9985 10.148-8.0581 23.917-8.0581h54.911l15.798-15.458h-72.796c-18.431 0-23.644 1.7531-34.449 12.444l-29.074 28.833h23.369l18.322-17.759v-0.0016zm24.246-5.5929c-13.867 0-16.037 1.0612-22.327 7.346l-16.018 16.006h21.669l5.1585-5.1538c3.4054-3.4023 4.9273-3.7265 11.792-3.7265h37.467l14.483-14.472zm76.33 19.455c0.31959-0.14273 0.54609-0.33511 0.67796-0.57248 0.13188-0.23582 0.1955-0.59575 0.1955-1.0813 0-0.48715-0.16292-0.84863-0.48871-1.0938-0.3258-0.24202-0.81449-0.36148-1.4645-0.36148h-1.8865v5.0111h0.99291v-1.7686h1.0131l0.85637 1.7686h1.0441l-0.94326-1.902h2e-3zm-0.31028-0.84553c-0.13497 0.13342-0.35839 0.20168-0.66712 0.20168h-1.0115v-1.6911h0.82226c0.70901 0 1.0643 0.28391 1.0643 0.84398 0 0.29787-0.0684 0.51352-0.20789 0.64539zm2.4637-2.9772c-0.85328-0.8688-1.9315-1.3032-3.2316-1.3032-1.3032 0-2.3846 0.42975-3.2409 1.2954-0.85948 0.8688-1.2861 1.9331-1.2861 3.2068 0 1.2753 0.4313 2.3458 1.2954 3.2161 0.86259 0.87501 1.9455 1.3079 3.2456 1.3079 1.3032 0 2.3814-0.4344 3.227-1.297 0.84398-0.86725 1.266-1.9377 1.266-3.2115s-0.42666-2.3427-1.2753-3.2161zm-0.55851 5.8954c-0.71986 0.73538-1.6135 1.1015-2.684 1.1015-1.0705 0-1.961-0.37079-2.6824-1.1093a3.7079 3.7079 0 0 1-1.0782-2.6886c0-1.0519 0.35681-1.9486 1.0782-2.6871 0.72143-0.73848 1.615-1.1093 2.6824-1.1093 1.0658 0 1.9641 0.37079 2.684 1.1093 0.72141 0.73848 1.0798 1.6399 1.0798 2.6948 0 1.055-0.35838 1.9564-1.0782 2.6871v0.0016zm-1.5964-2.0727c0.32113-0.14273 0.54763-0.33511 0.6795-0.57248 0.13188-0.23582 0.1955-0.59575 0.1955-1.0813 0-0.48715-0.16292-0.84863-0.48871-1.0938-0.3258-0.24202-0.81449-0.36148-1.4645-0.36148h-1.8865v5.0111h0.99291v-1.7686h1.0131l0.85637 1.7686h1.0441l-0.94326-1.902zm-0.30874-0.84553c-0.13497 0.13342-0.35839 0.20168-0.66712 0.20168h-1.0115v-1.6911h0.82226c0.70901 0 1.0643 0.28391 1.0643 0.84398 0 0.29787-0.0684 0.51352-0.20789 0.64539zm347.12-36.215c-5.0468 5.6953-15.008 16.783-15.398 17.229-0.85173 0.9774-2.082 1.5825-3.3821 1.5871h-0.0528a4.569 4.569 0 0 1-3.3371-1.5095l-13.814-15.12c-1.4987-1.4397-3.5094-2.2341-5.6612-2.2341-2.549 0-5.022 1.086-6.7875 2.9756l-0.0234 0.02327-0.0171 0.02172-17.294 20.549-17.328-20.707c-1.0519-1.2241-2.3411-2.7305-5.16-2.7305h-33.892c-7.6672 0-12.933 2.1177-16.036 6.4586-3.1153-4.3409-8.3854-6.4586-16.029-6.4586h-32.58v25.487s-7.9836-15.991-8.6275-17.291c-1.5064-2.9849-2.9725-4.9227-4.7536-6.2972-2.0882-1.6042-4.6341-2.3876-7.7789-2.3876-3.1463 0-5.6829 0.78347-7.7571 2.3892-1.764 1.3715-3.2114 3.3123-4.6931 6.2941l-9.5382 19.106c-1.6073 3.1835-4.8017 5.1616-8.3343 5.1616h-19.847c-8.8835-0.16135-10.692-3.2378-10.809-11.982 0.34443-6.7906-0.12256-11.896 10.73-12.065h31.48v-8.3343h-31.48c-12.053 0-18.187 5.143-19.301 16.181-0.0622 0.66091-0.11168 1.2877-0.14894 1.8896 0 0-4.3331-8.7423-4.9165-9.9136-1.5049-2.9865-2.971-4.9258-4.752-6.2957-2.0898-1.6057-4.6341-2.3892-7.7804-2.3892s-5.6813 0.78347-7.7571 2.3892c-1.764 1.3699-3.2115 3.3107-4.6915 6.2972-2.1984 4.4526-16.304 32.639-16.304 32.639h9.2589l15.254-30.292c1.1636-2.324 2.3318-3.182 4.3238-3.182 1.9905 0 3.213 0.88742 4.3549 3.1665 0 0 10.011 19.753 10.588 21.011 2.8469 5.7356 8.6104 9.2962 15.047 9.2962h28.213c5.7325 0 10.92-3.199 13.541-8.3467 3.2409-6.4152 7.8114-15.525 11.076-21.945 1.1667-2.324 2.3302-3.182 4.3223-3.182 1.9936 0 3.2177 0.88742 4.3564 3.1665l11.166 22.116a14.74 14.74 0 0 0 13.257 8.1915h25.004c7.6718 0 12.942-2.1037 16.029-6.4183 3.092 4.3161 8.3638 6.4183 16.037 6.4183h30.889a4.254 4.254 0 0 0 4.2478-4.2478v-25.478l16.254 19.129c1.2055 1.449 3.0858 2.3209 5.0266 2.3209 1.9393 0 3.7498-0.84398 5.022-2.3147l9e-3 -0.0047 6e-3 -0.01086 14.174-17.004v27.609h8.4196v-29.378s9.1022 10.292 11.858 13.404a8.823 8.823 0 0 0 3.0765 2.2589l0.0264 0.01086v13.704h8.6213v-13.705c1.854-0.72452 2.6886-1.7624 3.9282-3.2021 3.3731-3.967 19.111-21.512 21.385-24.052h-10.919zm-145.45 29.584c-1.5747 1.9641-4.3595 2.881-8.7593 2.881l-23.999 0.03878v-24.047h24.038c7.3677 0 9.2356 2.7864 10.089 5.5138 1.1217 4.2307 1.0395 13.065-1.3699 15.614zm50.106 3.0392h-26.757c-3.891 0-6.5936-0.7571-8.2846-2.3209-1.3606-1.266-2.1674-3.1323-2.4947-5.821h32.65v-7.8828h-32.656c0.0962-0.85639 0.18153-1.781 0.42666-2.6529 1.2551-3.908 4.3098-5.5696 10.193-5.5696h26.923z" fill="#6a00eb"/>
</svg>
