<svg xmlns="http://www.w3.org/2000/svg" xmlns:xlink="http://www.w3.org/1999/xlink" id="Layer_1" version="1.1" viewBox="0.0 0.0 708.7 396.9" width="422.3709418787637" height="236.7587115609476">
  <!-- Generator: Adobe Illustrator 30.2.0, SVG Export Plug-In . SVG Version: 2.1.1 Build 105)  -->
  <defs>
    <style>
      .st0 {
        fill: url(#linear-gradient1);
      }

      .st1 {
        fill: #e1251b;
      }

      .st2 {
        fill: #231f20;
      }

      .st3, .st4 {
        fill: #141d27;
      }

      .st5 {
        fill: #ee2e24;
      }

      .st4 {
        fill-rule: evenodd;
      }

      .st6 {
        fill: url(#linear-gradient);
      }
    </style>
    <linearGradient id="linear-gradient" x1="143.4" y1="192.9" x2="572.6" y2="-54.9" gradientUnits="userSpaceOnUse">
      <stop offset=".6" stop-color="#ee2e24"/>
      <stop offset=".7" stop-color="#d2241b"/>
      <stop offset=".8" stop-color="#a2150c"/>
      <stop offset=".9" stop-color="#850b03"/>
      <stop offset="1" stop-color="#7a0800"/>
    </linearGradient>
    <linearGradient id="linear-gradient1" x1="169.8" y1="104.1" x2="154.3" y2="64.1" gradientUnits="userSpaceOnUse">
      <stop offset="0" stop-color="#ee2e24"/>
      <stop offset=".2" stop-color="#d2241b"/>
      <stop offset=".5" stop-color="#a2150c"/>
      <stop offset=".7" stop-color="#850b03"/>
      <stop offset=".9" stop-color="#7a0800"/>
      <stop offset="1" stop-color="#7a0800"/>
    </linearGradient>
  </defs>
  <g>
    <g id="GT">
      <g>
        <path class="st6" d="M194.2,42.7c-29.7,0-43.8,6.3-59.2,21.4-12.1,11.8-42.1,41.4-42.1,41.4h0s0,0,0,0c0,0,48.3-41.4,102.7-41.4h239.5l-98,96.7h47.4c14.2,0,28-5.2,38.2-15.1,7.1-6.9,82.7-81.6,82.7-81.6h91c7.1,0,13.9-2.8,18.9-7.8l13.7-13.6H194.2Z"/>
        <path class="st5" d="M374.4,84.4h-125.3c-7.7,0-14.9,3.1-20.3,8.5l-7.2,7.1h82.8c-30.6,30.1-31.1,30.4-64.4,30.4h-63l-30.8,30.4h127.3c12.8,0,28.5-5,39.4-15.7l61.5-60.7Z"/>
      </g>
      <path class="st0" d="M204.6,79.9c10.9-11,22.8-15.7,36.9-15.7h-45.9c-54.4,0-102.7,41.4-102.7,41.4l-7,7h86s20.2-20.1,32.7-32.7Z"/>
    </g>
    <g id="World_Challenge">
      <path class="st2" d="M163.9,189.6c.5,0,.6.2.5.6l-9.6,24.6c-1.6,4-2.5,4.5-7.2,4.5s-5.8-.5-6.1-4.5l-1.3-14.4-6.3,14.4c-1.8,4-2.5,4.5-7.8,4.5s-5.4-.5-5.5-4.5l-1-24.6c0-.5.2-.6.7-.6h5.6c.4,0,.5.2.5.6l.7,21.9c0,1,.2,1.1.8,1.1s.8-.2,1.3-1.1l9.2-20.8c.2-.5.6-.6,1-.6h5c.4,0,.7.2.8.6l1.9,20.8c0,1,.2,1.1.9,1.1s.8-.2,1.1-1.1l8.4-21.9c.2-.5.3-.6.7-.6h5.6Z"/>
      <path class="st2" d="M193.3,204.4c-2,11.5-5.5,14.9-16.4,14.9s-13.1-3.4-11.1-14.9c2-11.6,5.6-15,16.4-15s13.1,3.4,11.1,15ZM172.5,204.4c-1.3,7.4-.6,9.7,5.3,9.7s7.4-2.3,8.7-9.7c1.3-7.5.6-9.8-5.3-9.8s-7.4,2.3-8.7,9.8Z"/>
      <path class="st2" d="M225,199.2c-1,5.8-3.1,8-8.1,8.9l5.4,10.3c.3.4,0,.8-.6.8h-5.3c-1,0-1.2-.3-1.6-.8l-5.2-9.8h-3.9l-1.8,10.1c0,.5-.2.6-.7.6h-5.4c-.5,0-.6-.1-.6-.6l5-28.2c0-.4.2-.5.7-.5,3.9-.3,7.9-.4,11.4-.4,9.3,0,12.1,2.2,10.7,9.8ZM208.1,194.6l-1.7,9.2h4.6c5,0,6.5-.6,7.2-4.5.7-3.8-.6-4.7-5.5-4.7h-4.6Z"/>
      <path class="st2" d="M239,189.6c.4,0,.6.2.6.6l-4.2,23.7h13.9c.4,0,.6.2.6.6l-.8,4.1c0,.4-.3.6-.7.6h-19.9c-.4,0-.6-.2-.6-.6l5-28.3c0-.4.3-.6.7-.6h5.4Z"/>
      <path class="st2" d="M281.5,204.4c-1.9,10.6-6.4,14.9-16.4,14.9s-8.5-.1-12.2-.4c-.5,0-.6-.1-.5-.5l4.9-28.1c0-.4.2-.5.7-.5,3.9-.3,8.3-.4,12.4-.4,10,0,13,4.5,11.1,15ZM263.3,194.6l-3.4,19.5h6.2c5.2,0,7.5-2.9,8.7-9.7,1.3-7.3-.2-9.8-5.6-9.8h-5.9Z"/>
      <path class="st2" d="M321.9,190c.6.2.9.4.8,1l-.6,3.1c0,.4-.3.6-.8.6h-8.6c-5.8,0-7.2,2.3-8.6,9.7-1.4,7.4-.7,9.8,5.1,9.8h8.7c.4,0,.6.2.5.6l-.6,3.1c0,.6-.5.8-1.1,1-2.2.4-4.7.6-8.5.6-10.8,0-13-3.4-10.9-15,2-11.6,5.4-14.9,16.2-14.9s6.2.2,8.2.6Z"/>
      <path class="st2" d="M353.3,189.6c.4,0,.6.2.6.6l-5,28.3c0,.4-.3.6-.7.6h-5.4c-.4,0-.6-.2-.6-.6l2-11.5h-14l-2,11.5c0,.4-.3.6-.7.6h-5.4c-.4,0-.6-.2-.6-.6l5-28.3c0-.4.3-.6.7-.6h5.4c.4,0,.6.2.6.6l-2,11.5h14l2-11.5c0-.4.3-.6.7-.6h5.4Z"/>
      <path class="st2" d="M379.4,194l3.1,24.6c0,.5-.2.6-.7.6h-5.4c-.4,0-.4-.2-.5-.6l-1.1-7.9h-11.3l-3.9,7.9c-.2.5-.3.6-.7.6h-5.4c-.5,0-.6-.2-.4-.6l11.9-24.6c2-4.2,3-4.6,7.9-4.6s5.8.4,6.4,4.6ZM370.8,195.5l-4.8,10.1h8.3l-1.3-10.1c-.1-.9-.1-1.1-1-1.1s-.8.2-1.3,1.1Z"/>
      <path class="st2" d="M398,189.6c.4,0,.6.2.6.6l-4.2,23.7h13.9c.4,0,.6.2.6.6l-.8,4.1c0,.4-.3.6-.7.6h-19.9c-.4,0-.6-.2-.6-.6l5-28.3c0-.4.3-.6.7-.6h5.4Z"/>
      <path class="st2" d="M422.5,189.6c.4,0,.6.2.6.6l-4.2,23.7h13.9c.4,0,.6.2.6.6l-.8,4.1c0,.4-.3.6-.7.6h-19.9c-.4,0-.6-.2-.6-.6l5-28.3c0-.4.3-.6.7-.6h5.4Z"/>
      <path class="st2" d="M462.8,189.6c.4,0,.6.2.6.6l-.7,4.1c0,.4-.3.6-.8.6h-15.2l-1.3,7.2h13.9c.4,0,.6.2.6.6l-.7,3.9c0,.4-.3.6-.8.6h-13.9l-1.2,6.8h15.2c.4,0,.6.2.6.6l-.8,4.1c0,.4-.3.6-.7.6h-21.2c-.4,0-.6-.2-.6-.6l5-28.3c0-.4.3-.6.7-.6h21.2Z"/>
      <path class="st2" d="M495.9,189.6c.4,0,.6.2.6.6l-5,28.3c0,.4-.3.6-.8.6h-3.9c-1,0-1.5-.2-1.9-1l-10.7-18.3-3.3,18.7c0,.4-.3.6-.7.6h-5.4c-.4,0-.6-.2-.6-.6l5-28.3c0-.4.3-.6.7-.6h4.2c1.7,0,1.9.3,2.4,1.3l10.1,17.3,3.2-17.9c0-.4.3-.6.7-.6h5.4Z"/>
      <path class="st2" d="M525.6,190c.6.2.9.4.8,1l-.6,3.1c0,.4-.3.6-.8.6h-9.4c-5.8,0-7.2,2.3-8.6,9.8-1.3,7.4-.7,9.7,5.2,9.7h5.3l1.6-8.9c0-.4.3-.6.7-.6h5c.4,0,.6.2.6.6l-1.9,10.8c0,.6-.2.7-.3,1-1.3,1.6-6.6,2.3-11.8,2.3-10.8,0-13-3.4-11-14.9,2.1-11.6,5.5-15,16.3-15s6.9.2,8.9.6Z"/>
      <path class="st2" d="M555.9,189.6c.4,0,.6.2.6.6l-.7,4.1c0,.4-.3.6-.8.6h-15.2l-1.3,7.2h13.9c.4,0,.6.2.6.6l-.7,3.9c0,.4-.3.6-.8.6h-13.9l-1.2,6.8h15.2c.4,0,.6.2.6.6l-.8,4.1c0,.4-.3.6-.7.6h-21.2c-.4,0-.6-.2-.6-.6l5-28.3c0-.4.3-.6.7-.6h21.2Z"/>
    </g>
  </g>
  <g>
    <g>
      <path class="st3" d="M389.6,311.2c0,1.4.1,2.4.4,3.2.3.8.7,1.7,1.2,2.6.2.3.3.6.3.8,0,.4-.2.7-.7,1.1l-2.3,1.5c-.3.2-.7.3-1,.3s-.7-.2-1.1-.5c-.5-.5-.9-1.1-1.3-1.7-.4-.6-.7-1.3-1.1-2.1-2.8,3.3-6.4,5-10.7,5s-5.5-.9-7.2-2.6c-1.8-1.7-2.7-4.1-2.7-7s1.1-5.6,3.3-7.5c2.2-1.9,5.2-2.8,8.9-2.8s2.5,0,3.8.3c1.3.2,2.7.5,4.2.8v-2.7c0-2.8-.6-4.7-1.7-5.8-1.1-1.1-3.1-1.7-5.9-1.7s-2.6.2-3.9.5c-1.3.3-2.6.7-3.9,1.2-.6.3-1,.4-1.3.5-.3,0-.4,0-.6,0-.5,0-.8-.4-.8-1.1v-1.8c0-.6,0-1,.3-1.3.2-.3.5-.5,1-.8,1.3-.6,2.8-1.2,4.6-1.7,1.8-.5,3.7-.7,5.6-.7,4.3,0,7.5,1,9.5,3,2,2,3,4.9,3,8.9v11.8M374.9,316.7c1.2,0,2.4-.2,3.7-.7,1.3-.4,2.5-1.2,3.4-2.3.6-.7,1-1.5,1.2-2.3.2-.9.3-1.9.3-3.1v-1.5c-1.1-.3-2.2-.5-3.3-.6-1.2-.1-2.3-.2-3.4-.2-2.4,0-4.2.5-5.4,1.5-1.2,1-1.8,2.4-1.8,4.2s.4,3,1.3,3.8c.9.9,2.2,1.3,3.8,1.3M404,320.7c-.6,0-1.1-.1-1.4-.3-.3-.2-.5-.7-.8-1.4l-8.5-28c-.2-.7-.3-1.2-.3-1.5,0-.6.3-.9.9-.9h3.6c.7,0,1.2.1,1.4.3.3.2.5.7.7,1.4l6.1,24,5.6-24c.2-.7.4-1.2.7-1.4.3-.2.8-.3,1.5-.3h2.9c.7,0,1.2.1,1.5.3.3.2.5.7.7,1.4l5.7,24.3,6.3-24.3c.2-.7.5-1.2.7-1.4.3-.2.8-.3,1.4-.3h3.4c.6,0,.9.3.9.9s0,.4,0,.6c0,.2-.1.5-.3.9l-8.8,28c-.2.7-.5,1.2-.8,1.4-.3.2-.8.3-1.4.3h-3.1c-.7,0-1.2-.1-1.5-.4-.3-.3-.5-.7-.7-1.5l-5.6-23.4-5.6,23.4c-.2.7-.4,1.2-.7,1.5-.3.3-.8.4-1.5.4h-3.1ZM450.6,321.6c-1.9,0-3.8-.2-5.6-.6-1.8-.4-3.2-.9-4.2-1.5-.6-.3-1-.7-1.1-1-.1-.3-.2-.7-.2-1v-1.8c0-.8.3-1.1.8-1.1s.4,0,.7.1c.2,0,.5.2.9.4,1.2.5,2.6,1,4,1.3,1.4.3,2.9.4,4.3.4,2.3,0,4.1-.4,5.3-1.2,1.2-.8,1.9-1.9,1.9-3.4s-.3-1.9-1-2.5c-.7-.7-1.9-1.3-3.6-1.9l-5.3-1.7c-2.7-.8-4.6-2.1-5.8-3.7-1.2-1.6-1.8-3.4-1.8-5.3s.3-2.9,1-4c.7-1.2,1.5-2.2,2.6-3,1.1-.8,2.3-1.4,3.8-1.9s3-.6,4.6-.6,1.6,0,2.4.2c.8.1,1.6.2,2.3.4.7.2,1.4.4,2.1.6.6.2,1.1.4,1.5.6.5.3.9.6,1.1.9.2.3.3.7.3,1.2v1.7c0,.8-.3,1.1-.8,1.1s-.8-.1-1.4-.4c-2.1-.9-4.4-1.4-7-1.4s-3.7.3-4.8,1c-1.1.7-1.7,1.8-1.7,3.2s.4,1.9,1.1,2.6c.7.7,2.1,1.4,4,2l5.1,1.6c2.6.8,4.5,2,5.6,3.5,1.1,1.5,1.7,3.2,1.7,5.1s-.3,3-1,4.2c-.6,1.2-1.5,2.3-2.6,3.2-1.1.9-2.5,1.6-4,2-1.6.5-3.3.7-5.1.7"/>
      <path class="st4" d="M457.4,339.5c-11.9,8.8-29.2,13.5-44.2,13.5s-39.7-7.7-53.9-20.6c-1.1-1-.1-2.4,1.2-1.6,15.4,8.9,34.3,14.3,54,14.3s27.8-2.7,41.2-8.4c2-.9,3.7,1.3,1.7,2.8"/>
      <path class="st4" d="M462.4,333.8c-1.5-2-10.1-.9-13.9-.5-1.2.1-1.3-.9-.3-1.6,6.8-4.8,18-3.4,19.3-1.8,1.3,1.6-.3,12.8-6.7,18.2-1,.8-1.9.4-1.5-.7,1.4-3.6,4.7-11.7,3.1-13.6"/>
    </g>
    <g>
      <path class="st3" d="M80.1,331.2c-.7,0-1.1-.4-1.1-1.1v-33.3c0-.7.4-1.1,1.1-1.1h2.7c.7,0,1.2.3,1.3,1l.3,1.5c1.2-1.1,2.4-1.9,3.8-2.4,1.4-.6,2.9-.8,4.4-.8,3.1,0,5.6,1.2,7.5,3.5,1.9,2.3,2.8,5.5,2.8,9.5s-.5,5.1-1.4,7.2c-.9,2-2.2,3.6-3.8,4.7-1.6,1.1-3.5,1.6-5.6,1.6s-2.7-.2-4-.7c-1.3-.5-2.4-1.1-3.4-2v11.3c0,.7-.4,1.1-1.1,1.1h-3.7ZM90.8,317c2.1,0,3.7-.7,4.7-2.2,1-1.4,1.5-3.6,1.5-6.6s-.5-5.1-1.5-6.5c-1-1.4-2.6-2.1-4.7-2.1s-4.1.6-5.9,1.9v13.5c1.9,1.3,3.8,1.9,5.9,1.9Z"/>
      <path class="st3" d="M119.7,321.8c-3.8,0-6.8-1.2-9-3.5-2.1-2.4-3.2-5.6-3.2-9.8s1.1-7.5,3.2-9.8c2.1-2.3,5.1-3.5,9-3.5s6.8,1.2,9,3.5c2.1,2.3,3.2,5.6,3.2,9.8s-1.1,7.5-3.2,9.8c-2.1,2.4-5.1,3.5-9,3.5ZM119.7,317.2c4.2,0,6.2-2.9,6.2-8.8s-2.1-8.7-6.2-8.7-6.2,2.9-6.2,8.7,2.1,8.8,6.2,8.8Z"/>
      <path class="st3" d="M143.4,321c-.8,0-1.2-.3-1.4-1l-7.3-22.5c-.2-.5-.2-.8-.2-1,0-.5.3-.7.9-.7h4c.7,0,1.1.3,1.3.9l4.7,18.3,4.8-18.2c0-.4.3-.7.5-.8.2-.1.5-.2.9-.2h3.3c.4,0,.7,0,.9.2.2.1.3.4.4.8l4.8,18.6,5-18.6c.2-.6.6-.9,1.3-.9h3.6c.6,0,.9.2.9.7s0,.5-.2,1l-7.5,22.5c-.2.7-.7,1-1.4,1h-3.5c-.4,0-.7,0-.9-.2-.2-.1-.4-.4-.5-.8l-4.7-17.9-4.7,17.9c0,.4-.3.7-.5.8-.2.1-.5.2-.9.2h-3.5Z"/>
      <path class="st3" d="M186.9,321.8c-4.2,0-7.3-1.1-9.5-3.4-2.1-2.2-3.2-5.5-3.2-9.8s1-7.6,3.1-10c2.1-2.4,5-3.6,8.8-3.6s5.7.9,7.5,2.7c1.7,1.8,2.6,4.3,2.6,7.5s0,2.3-.2,3.5c0,.4-.2.7-.4.9-.2.1-.4.2-.7.2h-15.3c0,2.5.8,4.4,2.1,5.5,1.3,1.2,3.3,1.8,6,1.8s4.1-.3,6.2-.9c.3,0,.5-.1.6-.1.1,0,.2,0,.3,0,.5,0,.7.3.7,1v1.8c0,.5,0,.9-.2,1.1-.1.2-.5.4-1,.6-2.2.9-4.7,1.3-7.5,1.3ZM191.1,305.9v-.4c0-2-.4-3.6-1.3-4.6-.9-1.1-2.2-1.6-3.8-1.6s-3.2.6-4.4,1.8c-1.1,1.2-1.8,2.8-1.9,4.8h11.5Z"/>
      <path class="st3" d="M203,321c-.7,0-1.1-.4-1.1-1.1v-23c0-.7.4-1.1,1.1-1.1h2.6c.5,0,.8,0,1,.2.2.1.3.4.4.7l.6,2.8c1.3-1.5,2.6-2.5,3.7-3.1,1.2-.6,2.4-.9,3.8-.9h.2c.4,0,.8,0,1.1.1.3,0,.5.2.6.4.1.2.2.6.2,1.1v2.7c0,.7-.3,1-.9,1s-.5,0-.8,0c-.3,0-.7,0-1.1,0-2.4,0-4.6.6-6.5,1.9v17.2c0,.7-.4,1.1-1.1,1.1h-3.7Z"/>
      <path class="st3" d="M232.5,321.8c-4.2,0-7.3-1.1-9.5-3.4-2.1-2.2-3.2-5.5-3.2-9.8s1-7.6,3.1-10c2.1-2.4,5-3.6,8.8-3.6s5.7.9,7.5,2.7c1.7,1.8,2.6,4.3,2.6,7.5s0,2.3-.2,3.5c0,.4-.2.7-.4.9-.2.1-.4.2-.7.2h-15.3c0,2.5.8,4.4,2.1,5.5,1.3,1.2,3.3,1.8,6,1.8s4.1-.3,6.2-.9c.3,0,.5-.1.6-.1.1,0,.2,0,.3,0,.5,0,.7.3.7,1v1.8c0,.5,0,.9-.2,1.1-.1.2-.5.4-1,.6-2.2.9-4.7,1.3-7.5,1.3ZM236.6,305.9v-.4c0-2-.4-3.6-1.3-4.6-.9-1.1-2.2-1.6-3.8-1.6s-3.2.6-4.4,1.8c-1.1,1.2-1.8,2.8-1.9,4.8h11.5Z"/>
      <path class="st3" d="M256.6,321.6c-3.2,0-5.7-1.2-7.6-3.5-1.9-2.4-2.9-5.5-2.9-9.5s.5-5.1,1.4-7.2c.9-2,2.2-3.6,3.8-4.7,1.6-1.1,3.5-1.6,5.6-1.6s5.1.9,7.2,2.6v-12.2c0-.7.4-1.1,1.1-1.1h3.7c.7,0,1.1.4,1.1,1.1v34.5c0,.7-.4,1.1-1.1,1.1h-2.9c-.7,0-1.2-.3-1.3-1l-.3-1.4c-2.2,2-4.8,3-7.8,3ZM258.5,317c1.9,0,3.8-.6,5.7-1.9v-13.6c-1.7-1.2-3.6-1.8-5.6-1.8s-3.8.7-4.9,2.1c-1,1.4-1.6,3.6-1.6,6.5,0,5.8,2.1,8.7,6.3,8.7Z"/>
      <path class="st3" d="M303.4,321.6c-1.5,0-2.9-.3-4.3-.8-1.4-.5-2.5-1.3-3.5-2.3l-.3,1.6c-.1.7-.6,1-1.3,1h-2.7c-.7,0-1.1-.4-1.1-1.1v-34.5c0-.7.4-1.1,1.1-1.1h3.7c.7,0,1.1.4,1.1,1.1v12.6c2.3-2,4.9-3,7.8-3s5.6,1.2,7.5,3.5c1.9,2.3,2.8,5.5,2.8,9.5s-.5,5.1-1.4,7.2c-.9,2-2.2,3.6-3.8,4.7-1.6,1.1-3.5,1.6-5.6,1.6ZM301.9,317c2.1,0,3.7-.7,4.7-2.2,1-1.4,1.5-3.6,1.5-6.6s-.5-5.1-1.5-6.5c-1-1.4-2.6-2.1-4.7-2.1s-4.1.6-5.9,1.9v13.5c1.9,1.3,3.8,1.9,5.9,1.9Z"/>
      <path class="st3" d="M321.9,331.8c-1.2,0-2.3-.1-3.1-.4-.4-.1-.7-.3-.8-.5-.1-.2-.2-.6-.2-1.1v-1.7c0-.7.3-1,.8-1s.4,0,.6,0c.2,0,.6,0,1.1,0,1.4,0,2.5-.3,3.2-.8.7-.5,1.4-1.7,2-3.5l.6-1.7-9.4-24c-.1-.3-.2-.6-.2-.8,0-.5.3-.7.9-.7h4c.7,0,1.1.3,1.3.9l6.1,19,6.2-19c.2-.6.6-.9,1.3-.9h3.8c.6,0,.9.2.9.7s0,.5-.2.8l-10.8,27.7c-.9,2.4-2,4.2-3.3,5.2-1.3,1.1-2.9,1.6-4.9,1.6Z"/>
    </g>
  </g>
  <g id="EUROPE">
    <path class="st1" d="M101.2,235.2c.3,0,.5.2.5.5l-.6,3.3c0,.3-.3.5-.6.5h-12.2l-1,5.8h11.2c.3,0,.5.2.5.5l-.6,3.1c0,.3-.3.5-.6.5h-11.2l-1,5.5h12.2c.3,0,.5.2.4.5l-.6,3.3c0,.3-.2.5-.6.5h-17.1c-.3,0-.5-.2-.4-.5l4-22.8c0-.3.2-.5.6-.5h17.1Z"/>
    <path class="st1" d="M133.1,235.2c.4,0,.5.1.4.5l-2,11.4c-1.7,9.6-4.3,12-12.9,12s-10.3-2.4-8.7-12l2-11.4c0-.3.2-.5.6-.5h4.3c.4,0,.5.1.4.5l-2,11.4c-1.1,6.2-.3,7.8,4.1,7.8s5.7-1.6,6.8-7.8l2-11.4c0-.3.2-.5.6-.5h4.3Z"/>
    <path class="st1" d="M163.7,242.9c-.8,4.6-2.5,6.5-6.5,7.1l4.3,8.3c.2.3,0,.6-.5.6h-4.3c-.8,0-1-.2-1.3-.7l-4.2-7.9h-3.2l-1.4,8.1c0,.4-.2.5-.6.5h-4.3c-.4,0-.5,0-.4-.5l4-22.6c0-.3.2-.4.6-.4,3.1-.2,6.4-.3,9.1-.3,7.5,0,9.7,1.7,8.6,7.9ZM150.2,239.2l-1.3,7.4h3.7c4.1,0,5.2-.5,5.8-3.6.5-3.1-.4-3.8-4.5-3.8h-3.7Z"/>
    <path class="st1" d="M195.4,247.1c-1.6,9.3-4.5,12-13.1,12s-10.5-2.7-8.9-12c1.6-9.3,4.5-12.1,13.1-12.1s10.6,2.8,8.9,12.1ZM178.8,247.1c-1.1,5.9-.4,7.8,4.3,7.8s5.9-1.8,7-7.8c1.1-6,.5-7.9-4.2-7.9s-6,1.9-7,7.9Z"/>
    <path class="st1" d="M227,242.9c-1.1,6.2-3.8,7.4-11.3,7.4h-4.2l-1.4,8.1c0,.4-.2.5-.6.5h-4.3c-.4,0-.5,0-.4-.5l4-22.6c0-.3.2-.4.6-.4,3.1-.2,6.4-.3,9.1-.3,7.5,0,9.7,1.7,8.6,7.9ZM213.5,239.2l-1.3,7.4h3.7c4.1,0,5.2-.5,5.8-3.6.5-3.1-.4-3.8-4.5-3.8h-3.7Z"/>
    <path class="st1" d="M256.2,235.2c.3,0,.5.2.5.5l-.6,3.3c0,.3-.3.5-.6.5h-12.2l-1,5.8h11.2c.3,0,.5.2.5.5l-.6,3.1c0,.3-.3.5-.6.5h-11.2l-1,5.5h12.2c.3,0,.5.2.4.5l-.6,3.3c0,.3-.2.5-.6.5h-17.1c-.3,0-.5-.2-.4-.5l4-22.8c0-.3.2-.5.6-.5h17.1Z"/>
  </g>
</svg>