<svg xmlns="http://www.w3.org/2000/svg" viewBox="0.0 0.0 123.0 100.0" width="350.8232077228117" height="285.0438562747845"><defs><linearGradient id="a" x1="15.55" y1="50.89" x2="110.21" y2="-3.77" gradientUnits="userSpaceOnUse"><stop offset=".6" stop-color="#e41f13"/><stop offset=".66" stop-color="#d01d10"/><stop offset=".81" stop-color="#a11907"/><stop offset=".93" stop-color="#831702"/><stop offset="1" stop-color="#781600"/></linearGradient><linearGradient id="b" x1="20.21" y1="31.74" x2="16.74" y2="22.78" gradientUnits="userSpaceOnUse"><stop offset="0" stop-color="#e41f13"/><stop offset=".13" stop-color="#d01e12"/><stop offset=".48" stop-color="#a11c10"/><stop offset=".74" stop-color="#831b0f"/><stop offset=".89" stop-color="#781a0e"/><stop offset="1" stop-color="#781a0e"/></linearGradient></defs><path d="M57.85 44.37L79.8 22.7H26c-9.88 0-18.78 6-21.89 8.37l8.38-8.24c3.16-3.09 6.2-4.77 13.2-4.77h97.13L119.88 21a5.93 5.93 0 01-4.19 1.73h-20.4c-.19.16-16.94 16.73-18.53 18.27a12.09 12.09 0 01-8.5 3.37z" fill="url(#a)"/><path d="M122.62 18.14l-2.8 2.77a5.81 5.81 0 01-4.13 1.71H95.26c-.17.17-16.93 16.75-18.51 18.29a12.05 12.05 0 01-8.45 3.34H58l21.68-21.4.27-.27H26c-6.32 0-12.26 2.53-16.12 4.65a47.31 47.31 0 00-4.94 3.1c2.19-2.16 5.8-5.72 7.6-7.48a15.11 15.11 0 015.37-3.63 22 22 0 017.78-1.12h96.94m.37-.1H25.68c-6.66 0-9.81 1.42-13.26 4.8C9.72 25.42 3 32.05 3 32.05s10.81-9.27 23-9.27h53.61l-22 21.67h10.6a12.24 12.24 0 008.56-3.39c1.6-1.56 18.51-18.28 18.51-18.28h20.36a6 6 0 004.29-1.78l3.07-3zm-57 9.32H38a6.4 6.4 0 00-4.55 1.91l-1.65 1.58h18.53c-6.85 6.74-7 6.82-14.41 6.82h-14.1l-6.89 6.82h28.49a13 13 0 008.82-3.52z" fill="#e41f13"/><path d="M4.71 61.89l.57 4.43c0 .08 0 .11-.12.11h-1c-.08 0-.08 0-.09-.11l-.19-1.43h-2l-.69 1.43c0 .08-.06.11-.13.11h-1c-.08 0-.11 0-.08-.11l2.14-4.43c.36-.75.53-.82 1.41-.82s1.08.07 1.18.82zm-1.54.28L2.31 64h1.5l-.23-1.82c0-.16 0-.19-.18-.19s-.15.01-.23.18zm11.19-1.07c.08 0 .09 0 .09.11l-.35 5.11a.12.12 0 01-.13.11H13c-.08 0-.1 0-.1-.11l.25-3.3-1.93 3.14a.17.17 0 01-.17.1h-.72a.15.15 0 01-.15-.1L9.37 63l-.92 3.3a.12.12 0 01-.13.11h-1c-.07 0-.11 0-.09-.11l1.44-5.1c0-.07 0-.11.12-.11h.92c.24 0 .33.06.39.27l.9 3.36 2-3.34a.47.47 0 01.48-.28zm7.08 0c.08 0 .12 0 .11.1l-.13.74a.11.11 0 01-.13.1h-2.74l-.23 1.3h2.5c.08 0 .11 0 .11.1l-.13.7a.13.13 0 01-.14.11h-2.5L18 65.48h2.73c.08 0 .11 0 .1.11l-.14.73a.11.11 0 01-.12.11H16.7c-.08 0-.11 0-.1-.11l.9-5.11c0-.07.05-.1.13-.1zm6.63 1.72c-.19 1-.57 1.45-1.45 1.6l1 1.86c0 .07 0 .14-.12.14h-1a.26.26 0 01-.28-.16l-.92-1.76h-.71l-.32 1.82c0 .08 0 .11-.13.11h-1c-.09 0-.11 0-.09-.11l.95-5.08c0-.07 0-.09.13-.1.69 0 1.42-.07 2-.07 1.68 0 2.18.39 1.94 1.76zM25 62l-.29 1.66h.82c.91 0 1.16-.11 1.29-.81s-.09-.85-1-.85zm7-.9c.08 0 .11 0 .1.11l-.9 5.1a.13.13 0 01-.14.11h-1c-.08 0-.11 0-.09-.11l.89-5.1c0-.08.05-.11.13-.11zm6.57.06c.11 0 .16.07.14.19l-.1.55a.11.11 0 01-.13.1H36.9c-1 0-1.3.41-1.54 1.75s-.13 1.76.93 1.76h1.56c.07 0 .1 0 .09.1l-.1.56c0 .11-.08.15-.2.18a8.62 8.62 0 01-1.52.1c-1.95 0-2.33-.62-2-2.7s1-2.69 2.92-2.69a9 9 0 011.51.11zm5.77.72l.57 4.43c0 .08 0 .11-.12.11h-1c-.08 0-.08 0-.09-.11l-.19-1.43h-2l-.69 1.43c0 .08-.06.11-.13.11h-1c-.08 0-.11 0-.08-.11l2.14-4.43c.36-.75.53-.82 1.41-.82s1.06.08 1.16.83zm-1.54.28L41.92 64h1.5l-.23-1.82c0-.16 0-.19-.18-.19s-.15.01-.23.18z" fill="#e1251b"/><path d="M28 26.3a11 11 0 018.25-3.52H26c-12.18 0-23 9.27-23 9.27l-1.58 1.58h19.26z" fill="url(#b)"/><path d="M82.92 94.66C78.2 98.15 71.37 100 65.48 100a31.54 31.54 0 01-21.31-8.14c-.44-.39 0-.94.49-.63A42.86 42.86 0 0066 96.89a42.32 42.32 0 0016.27-3.33c.73-.34 1.43.53.65 1.1zm.72 3.14c-.17.43.2.61.59.28 2.53-2.12 3.18-6.56 2.67-7.2s-4.9-1.18-7.64.72c-.42.29-.34.69.12.64 1.52-.19 4.9-.59 5.5.18s-.67 3.96-1.24 5.38z" fill="#f59d0f" fill-rule="evenodd"/><path d="M56.12 83.49a4.39 4.39 0 00.16 1.28 7 7 0 00.47 1 .7.7 0 01.1.32.54.54 0 01-.28.43l-.9.6a.75.75 0 01-.38.13.59.59 0 01-.42-.2 3.76 3.76 0 01-.52-.67c-.14-.24-.28-.52-.43-.84a5.31 5.31 0 01-4.22 2 3.88 3.88 0 01-2.85-1 4 4 0 01.25-5.7 5.19 5.19 0 013.51-1.12 11.43 11.43 0 011.51.11c.53.08 1.08.18 1.65.32v-1.08a3.13 3.13 0 00-.68-2.29 3.24 3.24 0 00-2.33-.67 6.36 6.36 0 00-1.54.19 10.34 10.34 0 00-1.55.49 4.75 4.75 0 01-.5.19L47 77q-.3 0-.3-.45v-.7a.91.91 0 01.1-.5 1 1 0 01.4-.3 9.77 9.77 0 011.8-.65 9 9 0 012.23-.27 5.17 5.17 0 013.75 1.17 4.73 4.73 0 011.19 3.52zm-5.81 2.18a4.7 4.7 0 001.47-.26 3.17 3.17 0 001.36-.92 2.31 2.31 0 00.49-.91 5 5 0 00.14-1.25v-.6a12.9 12.9 0 00-1.32-.24 10.34 10.34 0 00-1.34-.08A3.32 3.32 0 0049 82a2.39 2.39 0 00-.18 3.18 2.07 2.07 0 001.49.49zm11.5 1.56a.91.91 0 01-.55-.14 1.07 1.07 0 01-.3-.57L57.6 75.43a2.58 2.58 0 01-.12-.57.3.3 0 01.35-.35h1.4a.89.89 0 01.56.13 1.19 1.19 0 01.29.57l2.41 9.48 2.23-9.48a1 1 0 01.28-.57.92.92 0 01.57-.13h1.16a1 1 0 01.57.13 1 1 0 01.28.57l2.25 9.61 2.49-9.61a1.19 1.19 0 01.28-.57.92.92 0 01.57-.13h1.33a.31.31 0 01.35.35 1 1 0 010 .22 2 2 0 01-.1.35l-3.49 11.09a1.07 1.07 0 01-.3.57.91.91 0 01-.55.14h-1.23a.85.85 0 01-.57-.15 1.12 1.12 0 01-.28-.58l-2.23-9.23-2.21 9.23a1.12 1.12 0 01-.27.58.9.9 0 01-.58.15zm18.4.37a9.45 9.45 0 01-2.2-.25 6.57 6.57 0 01-1.66-.57 1 1 0 01-.44-.41.93.93 0 01-.09-.4v-.73q0-.45.33-.45a.85.85 0 01.26 0l.37.15a7.5 7.5 0 001.58.51 8.83 8.83 0 001.7.17 3.83 3.83 0 002.09-.48 1.49 1.49 0 00.74-1.35 1.4 1.4 0 00-.38-1 3.72 3.72 0 00-1.45-.76l-2.06-.6A4.46 4.46 0 0176.69 80a3.39 3.39 0 01-.69-2.11 3.17 3.17 0 01.38-1.59 4 4 0 011-1.18 4.52 4.52 0 011.49-.74 6.28 6.28 0 011.81-.25 7.73 7.73 0 011 .06c.33 0 .64.1.93.16s.56.15.82.23a3.63 3.63 0 01.6.25 1.43 1.43 0 01.42.35.78.78 0 01.13.48v.68q0 .45-.33.45a1.52 1.52 0 01-.55-.18 6.8 6.8 0 00-2.76-.55 3.81 3.81 0 00-1.9.4 1.39 1.39 0 00-.68 1.28 1.36 1.36 0 00.43 1 4.29 4.29 0 001.58.79l2 .65a4.51 4.51 0 012.22 1.38 3.28 3.28 0 01.66 2 3.66 3.66 0 01-.38 1.67 3.7 3.7 0 01-1 1.26 4.59 4.59 0 01-1.59.81 7.22 7.22 0 01-2.07.3zM3.88 76.24c0 1.37-.5 1.65-2 1.65h-.82v1.78c0 .09 0 .11-.1.11H.1c-.08 0-.1 0-.1-.11v-5c0-.07 0-.08.1-.09.6 0 1.24-.07 1.8-.07 1.48 0 1.98.38 1.98 1.73zm-2.82-.81v1.64h.73c.81 0 1-.11 1-.8s-.2-.84-1-.84zm8.66 1.74c0 2-.47 2.65-2.19 2.65s-2.19-.61-2.19-2.65.47-2.66 2.19-2.66 2.19.6 2.19 2.66zm-3.31 0c0 1.31.19 1.72 1.12 1.72s1.11-.41 1.11-1.72-.18-1.74-1.11-1.74-1.12.41-1.12 1.74zm11.7-2.62c.07 0 .1 0 .09.1L17.36 79c-.14.72-.27.81-1 .81s-.93-.09-1.11-.81l-.6-2.56L14 79c-.17.72-.26.81-1.1.81s-.87-.09-1-.81l-.84-4.36c0-.08 0-.1.09-.1h.89c.06 0 .09 0 .1.1l.72 3.88c0 .17.07.2.16.2s.13 0 .17-.2l.89-3.69a.14.14 0 01.14-.11H15a.13.13 0 01.13.11l.89 3.69c.05.17.07.2.17.2s.13 0 .16-.2l.72-3.88c0-.08 0-.1.1-.1zm5.16 0c.07 0 .1 0 .1.1v.72c0 .07 0 .1-.1.1h-2.43v1.28h2.22c.07 0 .11 0 .11.1v.69c0 .07 0 .1-.11.1h-2.22v1.21h2.43c.07 0 .1 0 .1.11v.72c0 .07 0 .1-.1.1h-3.39c-.06 0-.1 0-.1-.11v-5a.09.09 0 01.1-.1zM29 76.24c0 1-.27 1.43-1 1.58l1.15 1.83c.06.07 0 .13-.08.13h-.85a.27.27 0 01-.27-.15l-1.11-1.74h-.62v1.78c0 .09 0 .11-.1.11h-.86c-.08 0-.1 0-.1-.11v-5c0-.07 0-.08.1-.09.59 0 1.24-.07 1.8-.07 1.43 0 1.94.38 1.94 1.73zm-2.82-.81v1.64h.73c.8 0 1-.11 1-.8s-.21-.84-1-.84zm8-.88c.07 0 .1 0 .1.1v.72c0 .07 0 .1-.1.1h-2.39v1.28H34c.07 0 .11 0 .11.1v.69c0 .07 0 .1-.11.1h-2.21v1.21h2.43c.07 0 .1 0 .1.11v.72c0 .07 0 .1-.1.1h-3.39c-.07 0-.1 0-.1-.11v-5c0-.07 0-.1.1-.1zm6.09 2.61c0 1.88-.6 2.66-2.19 2.66-.66 0-1.37 0-2-.07-.08 0-.1 0-.1-.09v-5c0-.07 0-.08.1-.09.59 0 1.3-.07 2-.07 1.63.01 2.23.8 2.23 2.66zm-3.19-1.73v3.46h1c.82 0 1.11-.52 1.11-1.73s-.31-1.73-1.17-1.73zm-2.85 8c0 .73-.21 1.09-.77 1.19.68.08.88.49.88 1.22 0 1.1-.56 1.43-1.82 1.43-.56 0-1.45 0-2.05-.07-.08 0-.1 0-.1-.09v-5c0-.08 0-.09.1-.1.6 0 1.33-.07 1.89-.07 1.35.06 1.91.41 1.91 1.5zm-2.8-.52v1.34h.69c.76 0 1-.09 1-.65s-.27-.69-.9-.69zm0 2.11v1.34h1c.58 0 .83-.13.83-.65S33 85 32.49 85zm8.7-3c.09 0 .13 0 .07.15l-1.86 3.41v1.57c0 .07 0 .11-.1.11h-.86a.1.1 0 01-.1-.11v-1.58l-1.86-3.39c-.06-.11 0-.15.08-.15h1a.17.17 0 01.18.11l1.18 2.38L39 82.14a.17.17 0 01.19-.11zM18.88 50.9c.1 0 .14 0 .11.14l-2.14 5.5c-.36.91-.57 1-1.61 1s-1.29-.11-1.36-1l-.29-3.23-1.41 3.23c-.41.91-.56 1-1.74 1-1 0-1.2-.11-1.23-1L9 51c0-.11 0-.14.15-.14h1.25c.08 0 .1 0 .11.14l.16 4.89c0 .22.05.26.17.26s.19 0 .29-.26l2.06-4.66a.23.23 0 01.22-.14h1.12c.09 0 .16 0 .17.14l.43 4.66c0 .22 0 .26.2.26s.17 0 .26-.26L17.47 51c0-.11.07-.14.15-.14zm6.58 3.32c-.46 2.58-1.24 3.34-3.66 3.34s-2.94-.76-2.49-3.34 1.24-3.37 3.66-3.37 2.94.77 2.49 3.37zm-4.64 0c-.29 1.65-.12 2.17 1.19 2.17s1.65-.52 1.94-2.17.13-2.2-1.18-2.2-1.66.52-1.95 2.2zM32.55 53c-.22 1.29-.7 1.81-1.8 2L32 57.34c0 .1 0 .17-.15.17h-1.23c-.22 0-.28-.06-.35-.18l-1.16-2.21h-.88l-.4 2.26c0 .11 0 .13-.16.13h-1.21c-.11 0-.14 0-.12-.13l1.11-6.32c0-.09.05-.11.16-.12.87-.07 1.78-.09 2.54-.09 2.09 0 2.71.49 2.4 2.15zm-3.77-1l-.37 2.07h1c1.13 0 1.45-.14 1.62-1S30.92 52 29.8 52zm6.92-1.1c.1 0 .13 0 .12.13l-.92 5.31H38c.09 0 .13 0 .12.13l-.17.92c0 .08-.07.12-.16.12h-4.45c-.1 0-.13 0-.12-.13L34.34 51c0-.09.06-.13.16-.13zm9.52 3.31c-.42 2.36-1.43 3.35-3.66 3.35-.93 0-1.91 0-2.75-.09-.1 0-.13 0-.11-.11l1.1-6.3c0-.09.05-.11.16-.12.87-.07 1.85-.09 2.77-.09 2.27 0 2.9 1 2.49 3.36zM41.13 52l-.77 4.37h1.4c1.15 0 1.68-.65 2-2.18s-.1-2.19-1.3-2.19zm13.13-1c.14 0 .2.08.18.23l-.12.68a.16.16 0 01-.17.13h-1.94c-1.31 0-1.62.51-1.92 2.18s-.16 2.19 1.15 2.19h2c.09 0 .13 0 .11.12l-.12.7c0 .13-.11.18-.25.22a11.38 11.38 0 01-1.9.13c-2.42 0-2.9-.77-2.44-3.36s1.21-3.35 3.63-3.35a10.5 10.5 0 011.79.13zm7-.08c.1 0 .13 0 .12.14l-1.12 6.34c0 .09-.06.13-.16.13h-1.2c-.1 0-.13 0-.12-.13l.45-2.58h-3.11l-.45 2.58c0 .09-.07.13-.17.13h-1.2c-.09 0-.13 0-.12-.13L55.3 51a.14.14 0 01.16-.14h1.2c.1 0 .13 0 .13.14l-.46 2.57h3.14l.46-2.57c0-.1.06-.14.16-.14zm5.84 1l.7 5.51c0 .1 0 .13-.15.13h-1.18c-.09 0-.09 0-.1-.13l-.24-1.78H63.6l-.86 1.78c-.05.1-.07.13-.17.13h-1.2c-.1 0-.13 0-.1-.13l2.66-5.51c.46-.93.66-1 1.76-1s1.31.02 1.44.95zm-1.92.35l-1.08 2.27H66l-.29-2.27c0-.2 0-.24-.21-.24s-.19-.03-.29.19zm6.12-1.37c.09 0 .13 0 .12.13l-.93 5.31h3.11c.1 0 .14 0 .13.13l-.17.92c0 .08-.07.12-.16.12h-4.46c-.1 0-.13 0-.12-.13L69.93 51c0-.09.07-.13.17-.13zm5.48 0c.09 0 .13 0 .12.13l-.9 5.31h3.12c.09 0 .13 0 .12.13l-.17.92c0 .08-.07.12-.16.12h-4.49c-.1 0-.13 0-.12-.13L75.41 51c0-.09.07-.13.17-.13zm9 0c.09 0 .14 0 .13.13l-.16.91a.16.16 0 01-.17.13H82.2l-.28 1.62H85c.09 0 .14 0 .13.12l-.16.88c0 .08-.07.12-.17.12h-3.08l-.27 1.53h3.41c.09 0 .13 0 .12.13l-.17.92c0 .08-.06.12-.16.12H79.9c-.1 0-.13 0-.13-.13L80.89 51c0-.09.07-.13.17-.13zm7.41 0c.09 0 .13 0 .12.14l-1.12 6.34a.15.15 0 01-.17.13h-.88a.43.43 0 01-.44-.21l-2.39-4.11-.74 4.19c0 .09-.06.13-.16.13h-1.2c-.1 0-.13 0-.13-.13L87.23 51c0-.1.07-.14.17-.14h.93c.38 0 .42.08.54.28l2.26 3.87.71-4a.14.14 0 01.16-.11zm6.63.08c.13 0 .2.08.18.23l-.12.68a.16.16 0 01-.17.13h-2.1c-1.31 0-1.62.5-1.93 2.19s-.15 2.18 1.16 2.18h1.19l.35-2a.14.14 0 01.16-.13h1.12c.09 0 .13.05.12.13l-.43 2.43a.42.42 0 01-.08.22 4.57 4.57 0 01-2.64.52c-2.42 0-2.9-.76-2.45-3.35s1.22-3.36 3.64-3.36a13.34 13.34 0 012.03.15zm6.79-.08c.1 0 .15 0 .14.13l-.16.91a.16.16 0 01-.17.13H103l-.28 1.62h3.11c.09 0 .14 0 .13.12l-.16.88c0 .08-.08.12-.17.12h-3.11l-.27 1.53h3.41c.09 0 .13 0 .12.13l-.17.92c0 .08-.07.12-.16.12h-4.75c-.1 0-.14 0-.13-.13l1.16-6.38a.14.14 0 01.16-.13zm2.85-39.51h9.11l1.11-2.86h-8.09c-1.61 0-1.71-.62-1.09-2.23l.5-1.2c.53-1.39 1.2-2.24 3-2.24h7.89L123 0h-9.11c-3.07 0-5.2.77-6.46 4l-1.29 3.33c-1.26 3.29.28 4.06 3.35 4.06zM74.58.06L73.47 3h5.18l-3.24 8.38h4.25L82.9 3h5.15L89.17.06zm29.72 2.8l1.08-2.8H92l-3.25 8.47-.54 1.41-.53 1.37H101l1.08-2.8h-9.32l.56-1.43h9.35l1.08-2.79H94.4l.6-1.43zM31.24.77a.82.82 0 00-.88-.71h-3A2 2 0 0026 .78l-9.83 10.55H21l6.69-7.66c.31 2.19.6 4.09.78 5.31.36 2.35.36 2.35.43 2.35H33zm37.52 0a.83.83 0 00-.88-.71h-3a2 2 0 00-1.42.72l-9.77 10.55h4.8l6.68-7.66c.32 2.19.6 4.09.79 5.31.36 2.35.36 2.35.42 2.35h4.11zM51.25.06l-2.75 8-3-7.47a.87.87 0 00-.88-.56h-4.87l-4.35 11.3h4l2.75-8 3.24 8h5.49L55.27.06zM1.42 11.33h4.14L7 7.62h8.92L17 4.7H4zM7.14.06a2.19 2.19 0 00-1.89 1.36L4.6 3.1h13.89l1.17-3z" fill="#000"/></svg>