<?xml version="1.0" encoding="UTF-8" standalone="no"?>
<svg
   id="Layer_1"
   data-name="Layer 1"
   viewBox="0 0 999.99997 183.7"
   version="1.1"
   sodipodi:docname="Moto2 Logo (2024).svg"
   width="1000"
   height="183.7"
   inkscape:version="1.4 (86a8ad7, 2024-10-11)"
   xmlns:inkscape="http://www.inkscape.org/namespaces/inkscape"
   xmlns:sodipodi="http://sodipodi.sourceforge.net/DTD/sodipodi-0.dtd"
   xmlns="http://www.w3.org/2000/svg"
   xmlns:svg="http://www.w3.org/2000/svg">
  <sodipodi:namedview
     id="namedview1"
     pagecolor="#ffffff"
     bordercolor="#000000"
     borderopacity="0.25"
     inkscape:showpageshadow="2"
     inkscape:pageopacity="0.0"
     inkscape:pagecheckerboard="0"
     inkscape:deskcolor="#d1d1d1"
     showgrid="false"
     inkscape:zoom="1.1646526"
     inkscape:cx="583.86509"
     inkscape:cy="45.07782"
     inkscape:window-width="1920"
     inkscape:window-height="1017"
     inkscape:window-x="-8"
     inkscape:window-y="-8"
     inkscape:window-maximized="1"
     inkscape:current-layer="Layer_1" />
  <defs
     id="defs1">
    <style
       id="style1">
      .cls-1 {
        fill: #fff;
      }
    </style>
  </defs>
  <path
     id="path1"
     style="fill:#000000;stroke-width:0.969642"
     class="cls-1"
     d="M 561.92651,0.91070948 V 131.73479 c 0,26.65547 21.60318,48.43289 48.25865,48.43289 h 32.53226 v -43.63392 h -32.28985 c -2.13321,0 -3.85963,-1.72453 -3.85963,-3.85774 l -0.0777,-59.458772 H 642.7079 V 29.583339 H 606.44294 L 606.40318,0.91070948 Z M 171.27613,12.963062 c -11.98478,0 -24.23114,4.780109 -31.52285,12.857231 L 0.91070948,180.1885 H 64.944986 L 161.60053,72.751366 c 1.77445,-1.84232 4.8861,-0.580801 4.8861,1.979055 v 64.712269 c 0,18.05475 11.19959,34.01657 28.35257,40.09623 16.10576,5.7112 35.10136,0.78518 46.61102,-11.62624 l 85.48382,-94.869664 c 1.77445,-1.84232 4.88609,-0.582693 4.88609,1.977163 V 180.1885 h 47.92912 V 56.189798 c 0,-16.018493 -8.87177,-30.853114 -23.29035,-38.338754 -17.00753,-8.8431383 -37.62099,-5.420907 -50.71117,8.105605 L 219.3132,121.81489 c -1.77445,1.84233 -4.89745,0.59217 -4.89745,-1.96768 V 56.180328 c 0,-23.8629 -19.27672,-43.217266 -43.13962,-43.217266 z m 653.96701,0.0095 V 79.9953 h 14.30222 c -10.80181,10.588496 -17.52174,25.31775 -17.52174,41.59804 v 58.58572 h 174.93334 v -66.88639 h -14.89503 c 10.82122,-10.59819 17.56161,-25.347363 17.56161,-41.656749 0,-32.182433 -26.18008,-58.663367 -58.35283,-58.663367 z m -354.41378,8.863129 c -44.55507,0 -80.68486,36.118197 -80.68486,80.682959 0,44.56477 36.1201,80.68486 80.68486,80.68486 44.56477,0 80.68295,-36.12009 80.68295,-80.68486 0,-44.564762 -36.11818,-80.682959 -80.68295,-80.682959 z m 256.22802,0 c -44.55508,0 -80.68486,36.118197 -80.68486,80.682959 0,44.56477 36.12009,80.68486 80.68486,80.68486 44.56477,0 80.68295,-36.12009 80.68295,-80.68486 0,-44.564762 -36.11818,-80.682959 -80.68295,-80.682959 z m 114.7265,8.018489 h 99.47546 c 22.97083,0 41.65676,18.810912 41.65676,41.781741 0,22.970829 -18.68593,41.656749 -41.65676,41.656749 h -61.21246 c -4.03371,0 -7.30073,3.26701 -7.30073,7.30073 v 9.41613 h 107.81401 v 33.46214 H 838.74049 v -41.87833 c 0,-22.922345 18.64539,-41.569633 41.56774,-41.569633 v -0.02841 h 60.87536 c 4.6155,0 8.35749,-3.743881 8.35749,-8.359378 0,-4.615498 -3.74199,-8.357485 -8.35749,-8.357485 H 841.78388 Z M 470.82936,64.965819 c 20.03282,0 36.26311,17.541059 36.26311,37.564171 0,20.02312 -16.23029,37.56228 -36.26311,37.56228 -20.02311,0 -36.26501,-17.53916 -36.26501,-37.56228 0,-20.023112 16.2322,-37.564171 36.26501,-37.564171 z m 256.22802,0 c 20.0328,0 36.26311,17.541059 36.26311,37.564171 0,20.02312 -16.23031,37.56228 -36.26311,37.56228 -20.02312,0 -36.26501,-17.53916 -36.26501,-37.56228 0,-20.023112 16.23219,-37.564171 36.26501,-37.564171 z" />
</svg>
