<?xml version="1.0" encoding="UTF-8" standalone="no"?>
<svg
   id="Layer_1"
   data-name="Layer 1"
   viewBox="0 0 999.99996 182.5"
   version="1.1"
   sodipodi:docname="Moto3 Logo (2024).svg"
   width="1000"
   height="182.5"
   inkscape:version="1.4 (86a8ad7, 2024-10-11)"
   xmlns:inkscape="http://www.inkscape.org/namespaces/inkscape"
   xmlns:sodipodi="http://sodipodi.sourceforge.net/DTD/sodipodi-0.dtd"
   xmlns="http://www.w3.org/2000/svg"
   xmlns:svg="http://www.w3.org/2000/svg">
  <sodipodi:namedview
     id="namedview1"
     pagecolor="#ffffff"
     bordercolor="#000000"
     borderopacity="0.25"
     inkscape:showpageshadow="2"
     inkscape:pageopacity="0.0"
     inkscape:pagecheckerboard="0"
     inkscape:deskcolor="#d1d1d1"
     inkscape:zoom="1.175951"
     inkscape:cx="481.31257"
     inkscape:cy="109.27326"
     inkscape:window-width="1920"
     inkscape:window-height="1017"
     inkscape:window-x="-8"
     inkscape:window-y="-8"
     inkscape:window-maximized="1"
     inkscape:current-layer="Layer_1" />
  <defs
     id="defs1">
    <style
       id="style1">
      .cls-1 {
        fill: #fff;
      }
    </style>
  </defs>
  <path
     id="path1"
     style="fill:#000000;stroke-width:0.965682"
     class="cls-1"
     d="M 559.14929,0.42518779 V 130.71487 c 0,26.54658 21.51493,48.23503 48.06152,48.23503 h 32.39936 v -43.45566 h -32.15794 c -2.1245,0 -3.84387,-1.71749 -3.84387,-3.84199 l -0.0773,-59.215889 h 36.06971 V 28.980692 h -36.1169 L 603.44428,0.42518779 Z M 170.09468,12.428308 c -11.93582,0 -24.13216,4.760583 -31.39408,12.80471 L 0.42518779,178.97065 H 64.197891 L 160.45861,71.972382 c 1.7672,-1.834795 4.86614,-0.578428 4.86614,1.970971 v 64.447927 c 0,17.98099 11.15384,33.87762 28.23675,39.93244 16.03997,5.68786 34.95797,0.78198 46.42061,-11.57875 l 85.13464,-94.482129 c 1.76719,-1.834795 4.86612,-0.580314 4.86612,1.969085 V 178.97065 h 47.73334 V 55.478466 c 0,-15.953059 -8.83553,-30.727081 -23.19521,-38.182143 -16.93806,-8.8070154 -37.46732,-5.398763 -50.50402,8.072494 l -86.08146,95.466673 c -1.7672,1.83479 -4.87744,0.58975 -4.87744,-1.95965 V 55.469035 c 0,-23.765422 -19.19798,-43.040727 -42.9634,-43.040727 z m 648.8418,0 v 66.641456 h 61.77533 l -10.73944,33.664946 -51.03589,-0.0208 v 66.25669 h 121.74377 c 32.16685,0 58.52956,-26.02519 58.76133,-58.01822 0.11588,-15.70198 -5.91026,-30.476759 -16.96732,-41.611067 l 0.0116,-0.0095 c -7.4937,-7.551564 -16.68882,-12.806003 -26.7222,-15.403686 l 16.592,-51.499872 z m -350.51222,8.836363 c -44.37306,0 -80.35527,35.970656 -80.35527,80.353379 0,44.38272 35.97255,80.35527 80.35527,80.35527 44.38273,0 80.35338,-35.97255 80.35338,-80.35527 0,-44.382723 -35.97065,-80.353379 -80.35338,-80.353379 z m 255.18135,0 c -44.37307,0 -80.35527,35.970656 -80.35527,80.353379 0,44.38272 35.97254,80.35527 80.35527,80.35527 44.38272,0 80.35337,-35.97255 80.35337,-80.35527 0,-44.382723 -35.97065,-80.353379 -80.35337,-80.353379 z m 111.91155,7.648122 h 114.24088 l -15.99221,50.023058 h 7.23317 c 11.26951,0 21.84357,4.016707 29.78144,12.01255 7.9379,7.995841 12.26358,18.608159 12.17666,29.877659 -0.17382,22.96391 -19.13912,41.65068 -42.27685,41.65068 H 835.47 v -33.48011 h 105.37434 c 4.57733,0 8.29506,-3.79505 8.29506,-8.37238 0,-4.57733 -3.7175,-7.88954 -8.30448,-7.88954 h -53.6538 l 16.12801,-50.149431 h -67.79197 z m -367.0929,35.305845 c 19.95098,0 36.11499,17.469405 36.11499,37.410732 0,19.94132 -16.16401,37.40884 -36.11499,37.40884 -19.94132,0 -36.11686,-17.46752 -36.11686,-37.40884 0,-19.941327 16.16588,-37.410732 36.11686,-37.410732 z m 255.18135,0 c 19.95098,0 36.11498,17.469405 36.11498,37.410732 0,19.94132 -16.164,37.40884 -36.11498,37.40884 -19.94133,0 -36.11687,-17.46752 -36.11687,-37.40884 0,-19.941327 16.16589,-37.410732 36.11687,-37.410732 z" />
</svg>
