<?xml version="1.0" encoding="utf-8" ?>
<!DOCTYPE svg PUBLIC "-//W3C//DTD SVG 1.1//EN" "http://www.w3.org/Graphics/SVG/1.1/DTD/svg11.dtd">
<svg xmlns="http://www.w3.org/2000/svg" enable-background="new 0 0 468 225.8" viewBox="0 0 468 225.8"><path d="m447 225.8h-426c-11.6 0-21-9.4-21-21v-183.8c0-11.6 9.4-21 21-21h426c11.6 0 21 9.4 21 21v183.8c0 11.6-9.4 21-21 21"/><path d="m447.1 16.4c2.5 0 4.6 2 4.6 4.6v183.9c0 2.5-2 4.6-4.6 4.6h-426.2c-2.5 0-4.6-2-4.6-4.6v-184c0-2.5 2-4.6 4.6-4.6h426.2m0-7.5h-426.2c-6.7 0-12.2 5.5-12.2 12.2v183.9c0 6.7 5.5 12.2 12.2 12.2h426.1c6.7 0 12.2-5.5 12.2-12.2v-184c0-6.7-5.4-12.1-12.1-12.1" fill="#6138f5"/><path d="m245.4 29.9-6 4.5-2.8 10.3 3.3 4.7h9.7l-2 7.1h-8l1-3.4h-6.4l-1.3 4.9 3.4 4.7h11.2l6-4.6 2.8-10.3-3.3-4.7h-9.7l2-7h7.9l-.9 3.4h6.3l1.5-5.1-3.3-4.5z" fill="#fff"/><path d="m269.6 29.9-6 4.5-6.5 23.7 3.4 4.6h11.2l6-4.6 1.9-6.7h-6.4l-1.4 5.1h-7.9l5.6-20.4h8l-1.4 5.1h6.3l1.9-6.8-3.3-4.5z" fill="#fff"/><path d="m318 36.1h7.9l-2.9 10.6h-7.9zm-4.6-6.2-9.1 32.8h6.3l2.7-9.8h5.1l1.2 9.8h6.2l-1.4-11.2 4.5-3.6 3.8-13.5-3.3-4.5z" fill="#fff"/><path d="m206.5 29.9-5.1 18.5-3-18.5h-6.3l-9.2 32.8h6.4l5.2-18.6 3.1 18.6h6.2l9.1-32.8z" fill="#fff"/><path d="m221.1 36.1h8l-2.9 10.6h-8zm.1-6.2-5.9 4.5-7.9 28.3h6.3l2.7-9.8h8l-2.7 9.8h6.3l7.9-28.3-3.3-4.5z" fill="#fff"/><path d="m293.7 36.1h8l-2.9 10.6h-8zm.1-6.2-5.9 4.5-7.9 28.3h6.3l2.7-9.8h8l-2.7 9.8h6.3l7.9-28.3-3.3-4.5z" fill="#fff"/><path d="m176 29.9-9.1 32.8h12.6l9.1-32.8z" fill="#005eb8"/><path d="m157.9 29.9-9.2 32.9h6.1l9.1-32.9z" fill="#e4002b"/><path d="m166.4 29.9-9.1 32.9h6.1l9.1-32.9z" fill="#e4002b"/><path d="m144.4 29.9-9.1 32.9h3.8l9.1-32.9z" fill="#f3d03e"/><path d="m150.6 29.9-9.1 32.9h3.8l9.1-32.9z" fill="#f3d03e"/><g fill="#fff"><path d="m173 83.8c-.8-.2-2.4-.4-3.9-.4-3 0-6.2 1.3-7.9 3.5-1.4 1.8-2 4.4-2 9v2.5h13.8v9.1h-13.8v41.2h-10.5v-41.2h-12l6.7-9.1h5.3v-2.2c0-6.7 1-10.9 3.3-14.1 3.7-5.2 9.9-8.3 17-8.3 2.2 0 4.7.3 6.2.7z"/><path d="m184.1 98.4h10.5v50.3h-10.5z"/><path d="m218 103.2c2.8-2.6 8-5.9 15.5-5.9 7.6 0 14.4 3.4 18.8 8.9 3.3 4.1 5.1 9.2 5.1 17.9v24.6h-6.5c-2.2 0-4-1.7-4-3.9v-21.3c0-6.4-1.2-9.4-3.1-11.7-2.4-3-6.4-4.9-10.7-4.9-6.8 0-11.8 3.5-14.9 7.2v34.6h-10.5v-50.3h10.3z"/><path d="m270 98.4h10.5v50.3h-10.5z"/><path d="m326.5 148.7c-2 .6-5.2 1.1-8.2 1.1-6.5 0-11.3-2.2-14.6-5.9-3.1-3.3-4.2-7.9-4.2-13.4v-23h-11.2v-9.1h11.2v-15.8l10.5-4.5v20.3h10.5l4.4 9.1h-14.9v23.5c0 2.7.2 4.9 1.5 6.4 1.4 1.7 4.4 2.7 7.2 2.7 1.5 0 4.2-.2 5.7-.6z"/><path d="m332.9 174.4 19.4-34.9-23.3-41.1h7.6c2.3 0 4.3 1.2 5.4 3.1l15.5 28.1 15.7-28.2c1.1-1.9 3.1-3.1 5.4-3.1h7.4l-39.8 72c-1.4 2.4-4 4-6.8 4h-6.5z"/><path d="m153.6 174.1-38.3-51.9 17.7-23.8h-8.7c-2.3 0-4.5 1.1-5.8 2.9l-10.1 13.4-10-13.3c-1.4-1.9-3.6-3-6-3h-8.6l17.7 23.9-19.5 26.4h8c2.8 0 5.4-1.3 7-3.5l11.4-15.3 30 40.4c1.8 2.4 4.6 3.8 7.7 3.8z"/><path d="m190.9 170.7h-7.2l-1.7 6.2h8.6l3.1 4.2-2.6 9.2-5.3 4.2h-10.2l-3-4.2 1.2-4.5h5.7l-.8 3h7.1l1.7-6.2h-8.6l-3-4.2 2.5-9.2 5.4-4.2h10.1l3 4.2-1.2 4.4h-5.7z"/><path d="m205.2 176.9h9.7l-1.6 5.7h-9.7l-1.8 6.2h10.3l-1.6 5.7h-15.9l8.2-29.5h15.9l-1.6 5.7h-10.2z"/><path d="m227.9 185.8h-4.4l-2.4 8.8h-5.7l8.2-29.4h14.3l3 4.1-3.5 12.4-3.9 3.1 1.2 9.8h-5.7zm4.4-5.7 2.6-9.3h-7.2l-2.6 9.3z"/><path d="m244.4 194.5h-5.7l8.2-29.5h5.6z"/><path d="m260.1 176.9h9.7l-1.6 5.7h-9.7l-1.7 6.2h10.3l-1.6 5.7h-16l8.2-29.5h15.9l-1.5 5.7h-10.3z"/><path d="m289.4 170.7h-7.2l-1.7 6.2h8.6l3.1 4.2-2.6 9.2-5.3 4.2h-10.2l-3-4.2 1.2-4.5h5.7l-.8 3h7.1l1.8-6.2h-8.7l-3-4.2 2.6-9.2 5.3-4.2h10.1l3 4.2-1.2 4.4h-5.7z"/></g><path d="m157.8 187-2.1 7.6h-125.4v-7.6z" fill="#6138f5"/><path d="m437.8 29.9v7.6h-92.9l2.1-7.6z" fill="#6138f5"/><path d="m128.7 29.9-2.1 7.6h-96.3v-7.6z" fill="#6138f5"/><path d="m437.8 187v7.6h-130.7l2.1-7.6z" fill="#6138f5"/></svg>