<?xml version="1.0" encoding="utf-8" ?>
<!DOCTYPE svg PUBLIC "-//W3C//DTD SVG 1.1//EN" "http://www.w3.org/Graphics/SVG/1.1/DTD/svg11.dtd">
<svg xmlns="http://www.w3.org/2000/svg" enable-background="new 0 0 466.3 225" viewBox="0 0 466.3 225"><path d="m445.4 225h-424.5c-11.5 0-20.9-9.4-20.9-20.9v-183.2c0-11.5 9.4-20.9 20.9-20.9h424.5c11.6 0 20.9 9.4 20.9 20.9v183.1c0 11.6-9.4 21-20.9 21" fill="#00000b"/><path d="m445.4 8.8h-424.5c-6.7 0-12.1 5.4-12.1 12.1v183.3c0 6.7 5.4 12.1 12.1 12.1h424.6c6.7 0 12.1-5.4 12.1-12.1v-183.3c0-6.7-5.5-12.1-12.2-12.1zm4.6 195.4c0 2.5-2 4.6-4.6 4.6h-424.5c-2.5 0-4.6-2-4.6-4.6v-38.2h433.7zm0-142.8-433.7-.1v-40.4c0-2.5 2-4.6 4.6-4.6h424.6c2.5 0 4.6 2 4.6 4.6z" fill="#de1e26"/><g fill="#fff"><path d="m243.7 23.6-5.5 4.2-2.7 9.5 3.1 4.4h9l-1.8 6.6h-7.5l.9-3.1h-5.8l-1.3 4.5 3.2 4.4h10.4l5.5-4.3 2.6-9.6-3.1-4.4h-8.9l1.8-6.4h7.4l-.9 3.1h5.9l1.3-4.7-3.1-4.2z"/><path d="m266.1 23.6-5.5 4.2-6.1 22 3.2 4.3h10.4l5.5-4.3 1.7-6.2h-5.8l-1.3 4.7h-7.4l5.3-19h7.3l-1.3 4.8h5.9l1.7-6.3-3-4.2z"/><path d="m310.9 29.3h7.4l-2.7 9.8h-7.3zm-4.2-5.7-8.5 30.5h5.8l2.5-9.1h4.8l1.1 9.1h5.7l-1.3-10.4 4.1-3.4 3.5-12.5-3.1-4.2z"/><path d="m207.8 23.6-4.8 17.2-2.8-17.2h-5.9l-8.4 30.5h5.9l4.8-17.3 2.9 17.3h5.7l8.4-30.5z"/><path d="m221.2 29.3h7.4l-2.7 9.8h-7.4zm0-5.7-5.5 4.2-7.3 26.3h5.8l2.5-9.1h7.4l-2.5 9.1h5.9l7.3-26.2-3.1-4.2h-10.5z"/><path d="m288.5 29.3h7.4l-2.7 9.8h-7.4zm0-5.7-5.5 4.2-7.3 26.3h5.8l2.5-9.1h7.4l-2.5 9.1h5.9l7.3-26.3-3.1-4.2z"/></g><path d="m179.5 23.6-8.5 30.5h11.7l8.4-30.5z" fill="#005eb8"/><path d="m162.7 23.6-8.5 30.5h5.7l8.4-30.5z" fill="#e4002b"/><path d="m170.6 23.6-8.5 30.5h5.7l8.4-30.5z" fill="#e4002b"/><path d="m150.2 23.6-8.4 30.5h3.5l8.4-30.5z" fill="#ffdf4f"/><path d="m156 23.6-8.5 30.5h3.5l8.5-30.5z" fill="#ffdf4f"/><path d="m243.8 185h-7.2l1.4-5.2h6l-.7 2.5h4.7l1-3.7-2.5-3.5h-8.5l-4.4 3.5-2.2 7.7 2.5 3.5h7.3l-1.5 5.2h-6l.7-2.5h-4.8l-1.1 3.7 2.5 3.5h8.5l4.4-3.5 2.2-7.7zm-13.8-9.9h-4.8l-6.8 9.9h-2.6l2.7-9.9h-4.7l-6.8 24.7h4.7l2.8-10h2.6l1.3 10h4.8l-1.6-12.3zm-40.8 0-5.5 20h-5.9l5.5-20h-4.8l-5.9 21.1 2.5 3.5h8.5l4.4-3.5 5.9-21.1zm-29.7 0h-15.5l-1.3 4.8h5.3l-5.5 19.9h4.7l5.6-19.9h5.3zm101.7 14.7 1.3-4.8h-8.1l1.5-5.2h8.5l1.3-4.8h-13.3l-6.8 24.7h13.4l1.3-4.8h-8.6l1.5-5.2zm-58.8 1.4-1.1 3.7h-6l4.2-15.1h5.9l-1.1 3.8h4.8l1.4-5-2.5-3.5h-8.5l-4.4 3.5-4.9 17.7 2.5 3.5h8.5l4.5-3.5 1.4-5zm-27.2-12.6-2.5-3.4h-12l-6.8 24.6h4.8l2-7.3h3.6l.9 7.3h4.8l-1-8.2 3.3-2.6zm-7.2 9.1h-6l2.2-7.8h6zm134.5 2.1 1.3-4.8h-8.1l1.5-5.2h8.6l1.3-4.8h-13.3l-6.8 24.7h13.3l1.4-4.8h-8.6l1.5-5.2zm10.3-14.7-4.4 3.5-2.2 7.7 2.5 3.5h7.3l-1.5 5.2h-5.9l.7-2.5h-4.8l-1 3.7 2.5 3.5h8.5l4.5-3.5 2.2-7.7-2.5-3.5h-7.2l1.4-5.2h6l-.7 2.5h4.7l1-3.7-2.5-3.5zm-32.8 13.9 2.9-10.3-2.5-3.4h-12l-6.8 24.6h4.8l2-7.3h3.6l.9 7.3h4.8l-1-8.2zm-10.4-1.3 2.2-7.8h6l-2.2 7.8zm16.6-12.6-6.8 24.7h4.7l6.8-24.7zm157.9-49.1c-3.5 0-6.3 2.8-6.3 6.3s2.8 6.3 6.3 6.3 6.3-2.9 6.3-6.3c0-3.5-2.8-6.3-6.3-6.3zm0 12.1c-3.2 0-5.8-2.6-5.8-5.8s2.6-5.8 5.8-5.8 5.8 2.6 5.8 5.8-2.6 5.8-5.8 5.8zm-399.3-39.7h14v-11.5h-20.1c-2.7 2.6-5.1 5-7.5 7.3v36.8l7.3 7.1h20.4v-11.4h-14.1zm59.8 14v-19.4c-2.2-1.5-4.4-2.9-6.5-4.5-1.7-1.3-3.5-1.8-5.6-1.7-4.7.1-9.5 0-14.2 0h-7.1v51.2h13.6v-17.3l.5-.2c3.2 5.9 6.4 11.7 9.6 17.6h14.5c-4-7.3-7.8-14.2-11.6-21.2 2.3-1.5 4.7-3 6.8-4.5zm-13-3.4h-6.6v-10.3h6.6zm146.7 29.2h33.4c1.3-4 2.6-8 3.8-11.9-6.6-9.1-13.1-18-20-27.4h16.4c1.2-4 2.4-7.9 3.6-11.8h-30.5c-1 4.3-2 8.4-3.1 12.8 6.1 8.9 12.1 17.7 18.5 26.9h-18.5zm-57.8-18.1h10.3v-11.6h-10.3v-9.7h11.5v-11.8h-25.7v51.1h14.1zm30.6 18.1h13.7v-38.8h8.3c1.3-4.2 2.5-8.2 3.8-12.5h-32.9c-1.3 4.1-2.5 8.1-3.8 12.6h10.9zm143.8-51.3c-2.3 2-4.7 4-7 6v45.2h12.5v-16.8h9v16.7h12.4v-45c-2.4-2.1-4.7-4.1-7-6.1zm14.2 22.6h-8.6v-11.4h8.6zm-59.6-4.2c-2.7-6.4-5.2-12.3-7.8-18.3h-16v51.1h13.5v-28.2l.4-.1c2.4 5.5 4.7 11 7 16.5h5.9c2.3-5.4 4.6-10.7 6.9-16.1l.6.1v27.8h13.4v-51.1h-16c-2.6 6-5.1 12-7.9 18.3zm109.3 7.1-.4.1c-3.7-8.5-7.5-17-11.2-25.5h-12v51.2h12.2v-25.6l.4-.1c3.8 8.6 7.5 17.2 11.2 25.6h12v-51.1h-12.2zm-265.8 25.7v-45c-2.1-1.8-4.1-3.6-6.2-5.3-.6-.5-1.5-.8-2.3-.8-6.2-.1-12.3 0-18.5 0-2.3 2-4.7 4.1-7 6v45.2h12.3v-16.7h9.2v16.7h12.5zm-12.7-28.7h-8.7v-11.4h8.7zm306.2 21c0-1.4-1-1.9-2.4-1.9h-2.1v7.2h.5v-3.3h1.5l2 3.3h.6l-2-3.4c1.1-.1 1.8-.8 1.9-1.9zm-2.6 1.5h-1.4v-3.1h1.4c1.3 0 2 .4 2 1.5s-.7 1.6-2 1.6z" fill="#fff"/></svg>