<svg width="500" height="139" version="1.1" viewBox="0 0 500 139" xmlns="http://www.w3.org/2000/svg" xmlns:xlink="http://www.w3.org/1999/xlink">
 <path d="m130.61 76.445-7.2529 2.6265v-4.861l8.4688-3.2131h4.1144v27.908h-5.3304zm-35.944-5.4487h5.3703v23.596h10.741v4.3117h-16.111zm-11.797 5.85e-4h5.3703v27.908h-5.3703zm-18.972 16.11v7.4875h5.253c0.99194 0 1.7572-0.26932 2.2932-0.80528 0.5333-0.5333 0.80262-1.5199 0.80262-2.9598 0-1.4879-0.26932-2.4799-0.80262-2.9785-0.53597-0.49597-1.3146-0.74396-2.3332-0.74396zm0-11.25v6.7809h4.5464c1.2026 0 2.0132-0.25332 2.4319-0.76262 0.41597-0.51197 0.62663-1.3919 0.62663-2.6478 0-1.1759-0.22399-2.0319-0.66663-2.5678-0.44531-0.5333-1.2693-0.80262-2.4692-0.80262zm-5.3703-4.861h10.269c2.8478 0 4.9144 0.64263 6.1943 1.9226 1.2799 1.2799 1.9226 3.1491 1.9226 5.605 0 1.6986-0.28798 2.9972-0.86395 3.8984s-1.2933 1.5492-2.1545 1.9412c1.3839 0.52264 2.3759 1.3866 2.9785 2.5865 0.59996 1.2026 0.90128 2.5225 0.90128 3.9598 0 2.7705-0.63463 4.7944-1.9012 6.0743-1.2666 1.2826-3.2878 1.9226-6.0556 1.9226h-11.29zm-16.149 24.068c1.1226 0 2.0239-0.10399 2.7038-0.31465 0.67996-0.20799 1.2026-0.66396 1.5679-1.3706 0.36531-0.70662 0.60796-1.7386 0.72529-3.0958 0.11733-1.3599 0.17599-3.1891 0.17599-5.4903 0-2.0105-0.05866-3.6371-0.17599-4.8797-0.11733-1.2399-0.35998-2.1945-0.72529-2.8585-0.36531-0.66929-0.88795-1.1119-1.5679-1.3333-0.67996-0.22399-1.5812-0.33331-2.7038-0.33331-1.1253 0-2.0265 0.10933-2.7065 0.33331-0.67729 0.22132-1.1999 0.66396-1.5652 1.3333-0.36798 0.66396-0.60796 1.6186-0.72529 2.8585-0.11999 1.2426-0.17866 2.8692-0.17866 4.8797 0 2.3012 0.05866 4.1304 0.17866 5.4903 0.11733 1.3573 0.35731 2.3892 0.72529 3.0958 0.36531 0.70662 0.88795 1.1626 1.5652 1.3706 0.67996 0.21065 1.5812 0.31465 2.7065 0.31465m0 4.3117c-2.1705 0-3.9544-0.24265-5.3517-0.72529-1.3972-0.48264-2.4958-1.2879-3.2931-2.4105-0.79462-1.1226-1.3519-2.6132-1.6639-4.4691-0.31465-1.8532-0.46931-4.1544-0.46931-6.8983 0-2.8478 0.17332-5.1997 0.52797-7.0556 0.35198-1.8559 0.94128-3.3171 1.7626-4.3891 0.82395-1.0719 1.9279-1.8239 3.3118-2.2532 1.3866-0.43197 3.1091-0.64796 5.1757-0.64796 2.0639 0 3.7891 0.21599 5.173 0.64796 1.3839 0.42931 2.4905 1.1813 3.3118 2.2532 0.82395 1.0719 1.4132 2.5332 1.7652 4.3891s0.52797 4.2077 0.52797 7.0556c0 2.7438-0.15466 5.045-0.4693 6.8983-0.31465 1.8559-0.86928 3.3465-1.6666 4.4691s-1.8959 1.9279-3.2905 2.4105c-1.3999 0.48264-3.1838 0.72529-5.3517 0.72529m-42.373-0.47037 1.2559-27.908h6.309l5.9196 18.58 5.645-18.58h6.349l1.4106 27.908h-5.173l-0.86128-18.383-5.7623 18.383h-3.6478l-5.8396-18.383-0.78395 18.383z"/>
 <path d="m50.573 15.07c0 0.5733-0.43997 1.1146-1.0133 1.1173h-42.864v-9.0315l42.741 0.013332c0.6213 0 1.1413 0.5333 1.1413 1.1546zm-0.045331-14.604v-0.005333l-50.528-0.0026665v30.438h6.6956v-8.0129h43.832c3.7358 0 6.7463-2.9972 6.7463-6.7303l8e-3 -8.9755c0-3.7331-3.0238-6.7089-6.7543-6.7116m64.275 22.626c0 0.5813-0.51464 1.1146-1.0773 1.1146h-40.968c-0.42931 0-0.87461-0.37598-0.87461-0.82395v-15.279c0-0.5173 0.5573-0.94394 1.0959-0.94394l40.651 0.010666c0.62397 0 1.1733 0.52797 1.1733 1.1493zm0.0507-22.625-42.92-0.002666c-3.7331 0-6.7943 2.9998-6.7943 6.7356l0.0027 16.991c0 3.7331 3.0585 6.7116 6.7916 6.7116h42.821c3.7358 0 6.7169-2.9998 6.7169-6.7329l5e-3 -16.991c0-3.6878-2.9732-6.7089-6.6236-6.7116m65.413 14.603h-5e-3c0 0.5733-0.44797 1.1146-1.0133 1.1173h-43.008v-9.0315l42.885 0.015999c0.62129 0 1.1413 0.53063 1.1413 1.1546zm0.22132 5.4637c3.6238-0.12533 6.4769-3.1011 6.4769-6.7596l5e-3 -6.5969c0-3.7224-3.0078-6.6929-6.7276-6.7116v-0.005333l-50.698-8e-3v30.438h6.6956v-8.0075h37.31-3e-3c3.7358 0 6.7623 3.0292 6.7623 6.7649v1.1973h6.7329v-0.08266c0-4.5357-2.6852-8.4475-6.5543-10.229m64.863-7.6905-42.728 0.016v-0.0027c-0.62129 0-1.1279-0.42664-1.1279-1.0479v-4.5624c0-0.62396 0.49864-1.0826 1.1226-1.0826h48.482v-5.6823l-49.714 0.005333c-3.7038-0.005333-6.6076 3.0771-6.6076 6.7596v4.5624c0 3.7331 3.0265 6.7623 6.7623 6.7623l42.728-0.01333c0.6133 0 1.1226 0.43197 1.1226 1.0506h-3e-3l5e-3 4.5811c0 0.62663-0.50664 1.0479-1.1226 1.0479h-48.568v5.6823h49.65c3.7304 0 6.7596-3.0132 6.7596-6.7303v-4.5811c-0.0133-3.7251-3.0345-6.7649-6.7623-6.7649m14.739-5.6439 3e-3 16.991c0 3.7358 2.9785 6.7623 6.7143 6.7623l48.496-0.05066v-6.6929h-47.592c-0.41331-0.0027-0.87728-0.37064-0.87462-0.82395v-15.282c-3e-3 -0.51197 0.5573-0.94128 1.0933-0.94128h47.373v-6.6956h-48.416c-3.7358 0-6.7969 2.9972-6.7969 6.7329m110.39 5.6058h-40.686v-12.378h-6.6956v30.435h6.6956v-11.362h40.686v11.362h6.6956v-30.435h-6.6956zm73.966-6.6441v-5.685h-59.354v30.441h59.354v-5.6823h-52.658v-6.6956h52.658v-5.6823h-52.658v-6.6956z"/>
 <path d="m500 53.171h-500v-8.8901h500z" fill="#e00000"/>
 <path d="m175.84 115.05v8.8181h4.0771c0.73062 0 1.3252-0.0507 1.7839-0.15466 0.45597-0.104 0.82128-0.31998 1.0959-0.64796 0.27465-0.32532 0.46398-0.78396 0.56797-1.3732 0.10399-0.58664 0.15732-1.3626 0.15732-2.3305 0-0.88795-0.0587-1.6132-0.17599-2.1759-0.11732-0.56263-0.31464-0.99994-0.58929-1.3119-0.27199-0.31465-0.63997-0.53063-1.0959-0.64796s-1.0399-0.17599-1.7439-0.17599zm-5.3703-4.861h10.269c1.4639 0 2.7198 0.15732 3.7651 0.4693 1.0426 0.31465 1.9066 0.82396 2.5865 1.5306 0.67729 0.70396 1.1759 1.6319 1.4879 2.7838 0.31465 1.1493 0.47197 2.5465 0.47197 4.1918 0 1.8026-0.16266 3.3011-0.49064 4.4904-0.32531 1.1866-0.82928 2.1359-1.5092 2.8398-0.67996 0.70663-1.5466 1.2026-2.6052 1.4906-1.0586 0.28798-2.3199 0.43197-3.7838 0.43197h-4.821v9.6794h-5.3703zm-26.262-2.7e-4h5.3703v19.05c0 1.9092 0.36531 3.2211 1.0959 3.9411 0.73329 0.71729 1.9226 1.0773 3.5678 1.0773 1.6479 0 2.8345-0.35998 3.5678-1.0773 0.73063-0.71996 1.0959-2.0319 1.0959-3.9411v-19.05h5.333v18.932c0 1.5679-0.17599 2.9412-0.53064 4.1171-0.35197 1.1759-0.92794 2.1545-1.7252 2.9385-0.79728 0.78395-1.8292 1.3786-3.0958 1.7839-1.2693 0.40531-2.8158 0.60797-4.645 0.60797-1.8559 0-3.4158-0.20266-4.6824-0.60797-1.2692-0.40531-2.3012-0.99994-3.0985-1.7839-0.79728-0.78395-1.3706-1.7626-1.7252-2.9385-0.35198-1.1759-0.52797-2.5492-0.52797-4.1171zm-14.62 28.38c-2.1705 0-3.9544-0.24265-5.3517-0.72529-1.3972-0.48263-2.4958-1.2879-3.2931-2.4105-0.79729-1.1226-1.3519-2.6132-1.6639-4.4691-0.31465-1.8559-0.46931-4.1544-0.46931-6.8982 0-2.8478 0.17332-5.1997 0.52797-7.0556 0.35198-1.8559 0.94128-3.3198 1.7626-4.3917 0.82395-1.0693 1.9279-1.8212 3.3118-2.2532 1.3866-0.43197 3.1092-0.64529 5.1757-0.64529 2.0372 0 3.6771 0.21332 4.9197 0.64529 1.2399 0.43197 2.2079 1.0986 2.8985 1.9999 0.6933 0.90128 1.1706 2.0372 1.4319 3.4105 0.26132 1.3706 0.43197 3.0105 0.5093 4.9197h-5.213c-0.0533-1.2026-0.14932-2.1972-0.29331-2.9785-0.144-0.78396-0.38665-1.4132-0.72529-1.8826-0.34132-0.47197-0.79196-0.79728-1.3519-0.98127-0.56264-0.18132-1.2879-0.27465-2.1759-0.27465-1.1253 0-2.0266 0.11199-2.7065 0.33331-0.6773 0.22399-1.1999 0.66663-1.5652 1.3333-0.36798 0.66662-0.60797 1.6212-0.72796 2.8612-0.11733 1.2426-0.17599 2.8692-0.17599 4.8797 0 2.3012 0.0587 4.1304 0.17599 5.4903 0.11999 1.3572 0.35998 2.3892 0.72796 3.0958 0.36531 0.70396 0.88794 1.1626 1.5652 1.3706 0.67995 0.21066 1.5812 0.31465 2.7065 0.31465 0.88795 0 1.6132-0.0987 2.1759-0.29331 0.55996-0.19732 1.0106-0.53597 1.3519-1.0186 0.33864-0.4853 0.58129-1.1306 0.72529-1.9412 0.14399-0.81062 0.23998-1.8292 0.29331-3.0585h5.213c-0.0773 1.8826-0.28798 3.4958-0.62663 4.8424-0.34131 1.3439-0.88261 2.4425-1.6266 3.2931-0.74662 0.84795-1.7252 1.4746-2.9412 1.8799-1.2133 0.40531-2.7358 0.60796-4.5651 0.60796m-28.418-23.519v8.8181h3.9971c0.67996 0 1.2559-0.0373 1.7252-0.11733 0.47197-0.0773 0.84795-0.27465 1.1359-0.58663 0.28799-0.31465 0.49597-0.77062 0.6293-1.3732 0.13066-0.59997 0.19465-1.4106 0.19465-2.4292 0-0.94128-0.064-1.6932-0.19465-2.2532-0.13333-0.56263-0.34665-0.99994-0.64796-1.3146-0.30132-0.31199-0.69329-0.51464-1.1759-0.60797-0.48264-0.0907-1.0906-0.13599-1.8239-0.13599zm-5.3703-4.861h10.074c1.4639 0 2.7305 0.14399 3.8024 0.43197 1.0719 0.28799 1.9519 0.77862 2.6452 1.4692 0.69062 0.69329 1.2079 1.6132 1.5492 2.7625 0.33864 1.1519 0.5093 2.5892 0.5093 4.3117 0 2.5892-0.39198 4.5277-1.1759 5.821-0.78395 1.2959-1.9599 2.1252-3.5278 2.4905l5.5277 10.621h-5.9196l-4.781-9.6794h-3.3331v9.6794h-5.3703zm-21.95-2.7e-4h16.54v4.861h-11.17v6.7809h10.231v4.5464h-10.231v7.4076h11.17v4.3144h-16.54zm-18.148 4.8613v8.8181h4.0771c0.73062 0 1.3253-0.0507 1.7839-0.15466 0.45597-0.104 0.82128-0.31998 1.0959-0.64796 0.27465-0.32532 0.46397-0.78396 0.56797-1.3732 0.10399-0.58664 0.15732-1.3626 0.15732-2.3305 0-0.88795-0.05866-1.6132-0.17599-2.1759-0.11733-0.56263-0.31465-0.99994-0.5893-1.3119-0.27198-0.31465-0.63996-0.53063-1.0959-0.64796-0.45597-0.11733-1.0399-0.17599-1.7439-0.17599zm-5.3703-4.861h10.269c1.4639 0 2.7198 0.15732 3.7651 0.4693 1.0453 0.31465 1.9066 0.82396 2.5865 1.5306 0.67729 0.70396 1.1759 1.6319 1.4906 2.7838 0.31198 1.1493 0.4693 2.5465 0.4693 4.1918 0 1.8026-0.16266 3.3011-0.49064 4.4904-0.32531 1.1866-0.82928 2.1359-1.5092 2.8398-0.67996 0.70663-1.5466 1.2026-2.6052 1.4906s-2.3199 0.43197-3.7838 0.43197h-4.821v9.6794h-5.3703zm-26.263-2.7e-4h5.3703v19.05c0 1.9092 0.36531 3.2211 1.0959 3.9411 0.73329 0.71729 1.9226 1.0773 3.5678 1.0773 1.6479 0 2.8345-0.35998 3.5678-1.0773 0.73062-0.71996 1.0959-2.0319 1.0959-3.9411v-19.05h5.333v18.932c0 1.5679-0.17599 2.9412-0.53064 4.1171-0.35198 1.1759-0.92794 2.1545-1.7252 2.9385-0.79729 0.78395-1.8292 1.3786-3.0958 1.7839-1.2693 0.40531-2.8158 0.60797-4.6451 0.60797-1.8559 0-3.4158-0.20266-4.6824-0.60797-1.2693-0.40531-2.3012-0.99994-3.0985-1.7839-0.79729-0.78395-1.3706-1.7626-1.7252-2.9385-0.35198-1.1759-0.52797-2.5492-0.52797-4.1171zm-18.776 19.326c0.05333 0.91461 0.14932 1.6719 0.29598 2.2719 0.14132 0.60263 0.37598 1.0853 0.70396 1.4506 0.32531 0.36798 0.75195 0.62663 1.2746 0.78395 0.52264 0.15733 1.1999 0.23732 2.0372 0.23732 1.5146 0 2.5732-0.26132 3.1758-0.78395 0.59996-0.52264 0.90128-1.4506 0.90128-2.7838 0-0.5493-0.072-1.0186-0.21599-1.4106-0.14399-0.39198-0.37331-0.72529-0.68529-0.99994-0.31465-0.27465-0.72529-0.51464-1.2346-0.72529-0.5093-0.20799-1.1306-0.40531-1.8612-0.5893l-2.1572-0.54664c-1.2026-0.31464-2.2532-0.67995-3.1545-1.0986-0.90128-0.41597-1.6612-0.9546-2.2745-1.6079-0.6133-0.65329-1.0773-1.4506-1.3919-2.3892-0.31198-0.94127-0.46931-2.0799-0.46931-3.4105 0-1.2799 0.16266-2.4318 0.49064-3.4505 0.32531-1.0186 0.84795-1.8826 1.5679-2.5865 0.71729-0.70662 1.6639-1.2426 2.8425-1.6079 1.1733-0.36531 2.6105-0.5493 4.3091-0.5493 1.8026 0 3.2985 0.18399 4.4904 0.5493 1.1866 0.36531 2.1359 0.92794 2.8398 1.6852 0.70662 0.75995 1.2079 1.7199 1.5092 2.8825 0.30132 1.1626 0.4773 2.5412 0.53064 4.1358h-5.213c-0.05333-0.91461-0.15199-1.6612-0.29598-2.2345-0.14399-0.57596-0.37064-1.0186-0.68529-1.3332s-0.71729-0.53064-1.2159-0.64796c-0.49597-0.11733-1.1226-0.17599-1.8799-0.17599-1.3333 0-2.3145 0.24265-2.9412 0.72529s-0.94128 1.3279-0.94128 2.5278c0 0.62662 0.071996 1.1439 0.21599 1.5492 0.14399 0.4053 0.37864 0.75195 0.70662 1.0373 0.32531 0.28798 0.74929 0.53063 1.2746 0.72795 0.52264 0.19466 1.1626 0.38398 1.9199 0.56797l2.1572 0.54663c2.4025 0.60263 4.2051 1.5306 5.4077 2.7838 1.2026 1.2533 1.8026 3.0852 1.8026 5.4877 0 1.3066-0.17066 2.4559-0.5093 3.4505-0.33865 0.99194-0.88795 1.8292-1.6452 2.5092-0.75996 0.6773-1.7519 1.1946-2.9785 1.5466-1.2293 0.35198-2.7198 0.53063-4.4691 0.53063-1.7252 0-3.1758-0.16532-4.3517-0.49063-1.1759-0.32799-2.1359-0.85062-2.8798-1.5679-0.74662-0.71996-1.2959-1.6532-1.6479-2.8025-0.35198-1.1493-0.56797-2.5492-0.64529-4.1944z" fill="#010205"/>
</svg>
