<?xml version="1.0" encoding="UTF-8" standalone="no"?>
<svg
   xmlns:dc="http://purl.org/dc/elements/1.1/"
   xmlns:cc="http://creativecommons.org/ns#"
   xmlns:rdf="http://www.w3.org/1999/02/22-rdf-syntax-ns#"
   xmlns:svg="http://www.w3.org/2000/svg"
   xmlns="http://www.w3.org/2000/svg"
   viewBox="0 0 78.666664 49.333332"
   height="49.333332"
   width="78.666664"
   xml:space="preserve"
   id="svg2"
   version="1.1"><metadata
     id="metadata8"><rdf:RDF><cc:Work
         rdf:about=""><dc:format>image/svg+xml</dc:format><dc:type
           rdf:resource="http://purl.org/dc/dcmitype/StillImage" /></cc:Work></rdf:RDF></metadata><defs
     id="defs6" /><g
     transform="matrix(1.3333333,0,0,-1.3333333,0,49.333333)"
     id="g10"><g
       transform="scale(0.1)"
       id="g12"><path
         id="path14"
         style="fill:#202020;fill-opacity:1;fill-rule:nonzero;stroke:none"
         d="M 18.6289,325.43 C 34.4102,320 44.1016,306.91 45.1211,290.148 23.9805,291.211 12.2695,306.559 18.6289,325.43 m 74.3399,-13.641 c -11.2891,8.133 -25.8204,13.133 -42.8907,13.871 17.7305,1.059 35.7031,6.02 52.6919,14.18 0.628,-4.328 0.16,-9.059 -1.559,-14.059 -1.7618,-4.922 -4.5704,-9.691 -8.2422,-13.992 M 79.7695,300.23 c -8.789,14.059 -24.2187,23.442 -44.4609,25.43 21.7226,2.309 43.7109,11.68 62.3516,25.738 1.4804,-1.789 2.6918,-3.75 3.5898,-5.886 -18.5898,-11.293 -39.1406,-18.403 -59.3398,-19.614 19.2617,-1.41 34.8906,-8.519 45.5507,-19.808 -2.3828,-2.11 -4.9609,-4.102 -7.6914,-5.86 m -21.8398,-9.058 c -3.3203,17.34 -15.6992,30.269 -34.4102,34.527 21.7891,4.492 43.1993,17.379 58.6289,34.77 3.4727,-0.821 6.5625,-2.11 9.2618,-3.75 -17.5,-16.207 -39.7696,-27.66 -62.0313,-30.821 20,-3.32 34.25,-14.808 40.3906,-31.019 -3.8281,-1.641 -7.8203,-2.891 -11.8398,-3.707 m 12.1094,70.269 c -12.7383,-16.761 -31.5586,-29.8 -51.1289,-35.23 6.789,18.828 29.25,34.18 51.1289,35.23 m 157.6599,-40.39 c -3.437,-7.973 -9.258,-13.981 -32.187,-13.981 -12.742,0.078 -21.41,4.571 -21.41,11.399 0,1.211 0.199,2.66 0.859,4.261 l 9.019,20.86 h 22.348 l -9.379,-21.762 c -0.429,-1.09 -1.051,-2.148 -1.051,-3.359 0,-1.75 0.903,-3.117 3.672,-3.391 4.649,-0.398 6.25,3.082 7.192,5.274 l 10.039,23.238 h 20.5 z m 46.68,15.39 -12.309,-28.472 h -22.34 l 12.301,28.472 H 238.09 l 3,7.149 h 48.48 l -3.09,-7.149 z m -166.801,-28.472 31.524,32.109 c 3.359,3.281 7.738,4.41 11.328,4.453 h 9.492 c 3.519,-0.043 5.699,-3.011 6.207,-5.902 l 5.512,-30.66 H 150.16 v 5.543 h -14.961 l -3.789,-5.543 z m 42.582,11.711 v 15.59 l -10.711,-15.59 z m 246.36,-11.711 31.57,32.109 c 3.32,3.281 7.691,4.332 11.289,4.371 h 9.531 c 3.469,0 5.66,-2.929 6.211,-5.82 l 5.5,-30.66 H 439.18 v 5.543 h -15 l -3.828,-5.543 z m 42.66,11.711 v 15.59 l -10.782,-15.59 z m 100.98,24.379 c 2.539,0.351 7.031,0.589 11.25,0.351 5.192,-0.121 10.699,-0.551 15.86,-1.762 v -8.32 c -4.219,1.961 -8.051,2.703 -12.782,2.742 -5.308,0 -7.886,-1.058 -8.707,-2.582 -1.48,-2.617 2.848,-4.258 4.61,-5 5.121,-2.148 16.289,-5.039 13.629,-12.769 -3.239,-9.141 -23,-9.457 -32.219,-9.61 -5.391,-0.078 -10.473,0.071 -15.781,1.25 l -0.981,9.219 c 5.231,-1.758 10,-2.738 15.551,-2.738 5.07,0 8.75,1.019 9.14,3.711 0.7,5.121 -20.281,5.937 -17.699,16.058 1.598,6.52 12.028,8.981 18.129,9.45 M 374.34,323.98 h -3.399 l -3.711,-8.628 h 3.239 c 4.101,0 7.422,0.898 8.711,4.058 1.519,3.602 -1.95,4.57 -4.84,4.57 m 1.988,4.532 c 3.711,0 6.602,1.019 7.731,3.75 1.171,2.738 -0.11,4.179 -3.278,4.179 h -4.531 l -3.398,-7.929 z m -31.949,-14.25 c 3.742,8.937 10.5,24.41 10.5,24.41 1.211,2.726 4.262,4.918 7.07,4.918 h 28.09 c 15.313,0 16.641,-4.649 14.691,-9.262 -2.39,-5.656 -10.199,-7.297 -13.128,-7.34 7.968,-1.597 11.796,-4.449 9.136,-10.699 -2.617,-6.25 -15.269,-8.32 -27.187,-8.32 H 348.16 c -3.199,0 -5.191,2.57 -3.781,6.293 m -21.41,30.027 c 17.152,-1.211 22.691,-8.277 22.652,-15.23 0,-2.071 -0.5,-4.219 -1.402,-6.329 -3.828,-9.019 -17.617,-17.218 -37.617,-15.39 -15.274,1.332 -22.5,8.012 -22.5,15.98 0,4.371 2.027,8.59 5.078,11.68 10.269,10.352 28.711,9.719 33.789,9.289 m -0.391,-19.918 c 1.012,2.539 1.641,4.957 1.641,7.027 0,3.012 -1.41,5.391 -4.688,5.864 -6.679,0.816 -10.582,-3.832 -12.851,-10.864 -0.739,-2.257 -1.09,-4.218 -1.09,-5.777 0,-3.512 1.988,-5.191 4.879,-5.543 4.691,-0.469 8.871,1.711 12.109,9.293 m 194.41,18.828 v -8.437 c -3.976,1.328 -8.629,1.758 -12.726,1.636 -6.883,-0.07 -15.633,-2.218 -19.063,-10.07 -0.359,-0.898 -0.551,-1.879 -0.551,-2.777 0,-4.332 3.872,-6.832 9.372,-7.621 5.55,-0.93 12.351,-0.231 17.82,1.058 l -8.481,-8.519 c -6.058,-1.289 -12.539,-1.641 -18.629,-1.207 -13.558,0.937 -23.519,5.937 -23.519,14.769 0.82,10.821 12.539,22.457 40,22.457 8.238,0 13.91,-0.898 15.777,-1.289" /><path
         id="path16"
         style="fill:#D70C17;fill-opacity:1;fill-rule:nonzero;stroke:none"
         d="m 235.391,184.219 c 38.789,44.679 183.16,60.351 259.449,40.621 L 376.25,91.2891 C 323.012,79.1797 261.328,71.4414 198.48,71.0898 45.1602,70.2305 -36.4102,118.789 15.7383,178.898 67.8516,239.02 233.949,287.93 387.191,288.789 499.379,289.41 570.512,264.102 584.141,228.16 l -1.172,-0.269 c -20.86,23.039 -79.489,35.269 -168.91,34.757 -123.278,-0.66 -219.219,-38.75 -246.789,-70.578 -39.891,-45.98 17.851,-67.39 105.031,-66.922 60.078,0.364 118.597,15.512 136.328,33.051 -53.399,-27.89 -212.5,-19.219 -173.238,26.02" /><path
         id="path18"
         style="fill:#202020;fill-opacity:1;fill-rule:nonzero;stroke:none"
         d="m 323.75,42.1797 c 5.551,9.8906 15.391,9.8906 15.391,9.8906 h 52.578 l -4.61,-9.8906 -3.007,-6.2109 c -5.821,-9.879 -17.582,-9.879 -17.582,-9.879 h -3.399 L 373.551,10 H 361.52 l -10.391,16.0898 h -22.93 L 320.59,10 h -12 z m 48.359,-6.2109 2.969,6.2109 h -39.297 l -2.89,-6.2109 z" /><path
         id="path20"
         style="fill:#202020;fill-opacity:1;fill-rule:nonzero;stroke:none"
         d="m 491.328,52.0703 h 67.223 L 553.91,42.1797 H 528.75 L 513.52,10 h -14.61 l 15.192,32.1797 H 486.68 Z" /><path
         id="path22"
         style="fill:#202020;fill-opacity:1;fill-rule:nonzero;stroke:none"
         d="m 111.449,42.1797 c 5,9.8906 16.789,9.8906 16.789,9.8906 L 113.012,19.9219 h 39.218 l 15.231,32.1484 h 12.027 L 164.219,19.9219 C 158.871,10 148.91,10 148.91,10 H 96.3711 l 4.6089,9.9219 z" /><path
         id="path24"
         style="fill:#202020;fill-opacity:1;fill-rule:nonzero;stroke:none"
         d="M 52.8086,42.1797 49.8398,35.9688 H 101.09 l -4.6408,-9.879 -2.9687,-6.1679 C 87.8516,10 75.6602,10 75.6602,10 H 25.6211 l 4.6094,9.9219 h 51.25 l 2.9687,6.1679 H 33.2383 l 7.5,15.9414 c 5.2422,10.0391 17.9336,10.0391 17.9336,10.0391 h 50.0391 l -4.609,-9.8906 z" /><path
         id="path26"
         style="fill:#202020;fill-opacity:1;fill-rule:nonzero;stroke:none"
         d="m 246.719,42.1797 -2.969,-6.2109 c -5.121,-9.879 -17.66,-9.879 -17.66,-9.879 H 187.852 L 180.27,10 h -12.032 l 15.242,32.1797 c 5.579,9.8906 15.309,9.8906 15.309,9.8906 h 52.582 z m -14.957,-6.2109 2.968,6.2109 H 195.469 L 192.5,35.9688 Z" /><path
         id="path28"
         style="fill:#202020;fill-opacity:1;fill-rule:nonzero;stroke:none"
         d="m 254.219,19.9219 h 51.25 C 299.102,10 288.949,10 288.949,10 h -51.371 l 4.652,9.9219 10.579,22.2578 c 4.652,9.8906 15.312,9.8906 15.312,9.8906 h 52.578 l -4.648,-9.8906 h -51.25 l -2.961,-6.2109 h 51.25 l -4.649,-9.879 h -51.25 z" /><path
         id="path30"
         style="fill:#202020;fill-opacity:1;fill-rule:nonzero;stroke:none"
         d="m 431.449,52.0703 h 54.141 l -4.692,-9.8906 H 430.512 L 419.961,19.9219 h 39.687 l 2.973,6.1679 h -30.742 l 4.601,9.879 h 41.489 L 470.352,19.9219 C 465.469,10 455.59,10 455.59,10 h -53.168 l 15.199,32.1484 c 4.918,9.9219 13.828,9.9219 13.828,9.9219" /></g></g></svg>