<svg width="500" height="157" version="1.1" viewBox="0 0 500 157" xmlns="http://www.w3.org/2000/svg">
 <path d="m0 102.96h67.13v52.599h-67.13zm0-50.785h114.32v37.059h-114.32zm0-51.927h145.9v37.059h-145.9zm146.69 155.5h12.633v-22.259h20.176v-10.533h-32.809zm0-52.935h37.782v10.92h-37.782zm318.53 32.12 6.6694-17.975 6.5182 17.975h-13.171zm13.02-31.969h-12.28l-17.354 41.36h-21.402v-41.36h-12.734v52.397h43.275l3.847-10.281h20.277l4.0654 10.281h14.061zm-93.371 53.792c-13.759 0-22.343-8.5677-22.343-21.167v-32.641h12.583v31.6c0 5.6278 2.7215 10.802 9.8444 10.802 7.1229 0 9.8276-5.1742 9.8276-10.802v-31.6h12.65v32.641c0 12.583-8.8869 21.167-22.562 21.167m-42.217-1.3944 0.3024-37.076h-0.21841l-13.624 37.076h-8.8701l-13.255-37.076h-0.21838l0.28559 37.076h-11.911v-52.397h17.992l11.911 33.599h0.30238l11.39-33.599h18.278v52.397zm-75.984-42.183h-6.7366v12.213h5.9974c4.0655 0 9.1725-1.0248 9.1725-6.3669 0-4.8886-4.6534-5.8462-8.4333-5.8462m8.9541 42.183-11.323-20.798h-4.3006v20.798h-12.432v-52.397h19.974c10.063 0 20.058 3.8471 20.058 15.842 0 7.0221-4.1494 12.062-10.869 14.128l13.691 22.427zm-61.99-42.402c-8.8869 0-14.951 6.8038-14.951 15.976 0 9.1725 6.1318 16.279 14.951 16.279s15.019-6.8037 15.019-16.279c0-9.4748-6.1486-15.976-15.019-15.976m0 43.796c-16.363 0-28.492-11.239-28.492-27.82 0-16.581 12.129-27.383 28.492-27.383s28.559 10.584 28.559 27.383c0 16.799-12.146 27.82-28.559 27.82m254.85-87.878h6.2158c5.695 0 8.9709-2.0831 8.9709-6.2494 0-4.603-3.5111-6.2998-8.8365-6.2998h-6.3502v12.566zm0 19.504h-3.5614v-35.144h10.332c6.955 0 12.012 2.5367 12.012 9.3909 0 5.2246-3.8807 8.4837-8.9877 9.0381l10.281 16.732h-4.3678l-9.7268-16.43h-5.9638v16.43zm-79.024-3.1583h18.815v3.1583h-22.377v-35.144h21.789v3.1751h-18.227v12.129h17.018v3.1247h-17.018zm-79.428-16.195h6.0478c5.5606 0 8.5845-2.2343 8.5845-6.4006 0-4.1662-3.1751-6.2998-8.5845-6.2998h-6.0478v12.717zm-3.5782-15.791h9.9284c7.1397 0 11.86 3.0743 11.86 9.3909s-4.8046 9.4245-11.961 9.4245h-6.2494v16.329h-3.5782zm-82.115 22.041v-22.041h3.5783v21.654c0 5.6614 2.4359 11.222 9.5924 11.222 7.1565 0 9.5756-5.5606 9.5756-11.222v-21.654h3.5783v22.041c0 5.863-2.6207 13.994-13.154 13.994-10.533 0-13.171-8.1477-13.171-13.994m-58.428-16.379c-1.4951-2.1335-3.9143-3.5279-7.2405-3.5279-3.4943 0-7.4925 2.0831-7.4925 6.6022 0 4.519 3.7295 5.611 7.6437 6.8877 4.9558 1.6463 10.416 3.2255 10.416 10.281 0 7.0557-5.8966 10.13-11.457 10.13-4.267 0-8.5341-1.7303-11.071-5.2078l3.0743-2.2847c1.5455 2.4863 4.3678 4.4182 8.0469 4.4182 3.6791 0 7.7949-2.2847 7.7949-6.8037 0-4.9054-4.1158-6.1486-8.5845-7.5429-4.6702-1.4447-9.4244-3.4775-9.4244-9.8276 0-6.8038 6.0478-9.6764 11.222-9.6764 4.7038 0 8.2317 1.9823 9.9285 4.267l-2.8391 2.2847z"/>
</svg>
