<?xml version="1.0" encoding="UTF-8" standalone="no"?>
<svg
   xmlns:dc="http://purl.org/dc/elements/1.1/"
   xmlns:cc="http://creativecommons.org/ns#"
   xmlns:rdf="http://www.w3.org/1999/02/22-rdf-syntax-ns#"
   xmlns:svg="http://www.w3.org/2000/svg"
   xmlns="http://www.w3.org/2000/svg"
   xmlns:sodipodi="http://sodipodi.sourceforge.net/DTD/sodipodi-0.dtd"
   xmlns:inkscape="http://www.inkscape.org/namespaces/inkscape"
   width="500mm"
   height="103.87032mm"
   viewBox="0 0 500 103.87032"
   version="1.1"
   id="svg8"
   sodipodi:docname="WRX Logo.svg"
   inkscape:version="1.0 (4035a4fb49, 2020-05-01)">
  <defs
     id="defs2" />
  <sodipodi:namedview
     id="base"
     pagecolor="#ffffff"
     bordercolor="#666666"
     borderopacity="1.0"
     inkscape:pageopacity="0.0"
     inkscape:pageshadow="2"
     inkscape:zoom="0.4797136"
     inkscape:cx="761.5175"
     inkscape:cy="-27.11441"
     inkscape:document-units="mm"
     inkscape:current-layer="layer1"
     inkscape:document-rotation="0"
     showgrid="false"
     inkscape:window-width="1920"
     inkscape:window-height="986"
     inkscape:window-x="-11"
     inkscape:window-y="-11"
     inkscape:window-maximized="1" />
  <metadata
     id="metadata5">
    <rdf:RDF>
      <cc:Work
         rdf:about="">
        <dc:format>image/svg+xml</dc:format>
        <dc:type
           rdf:resource="http://purl.org/dc/dcmitype/StillImage" />
        <dc:title />
      </cc:Work>
    </rdf:RDF>
  </metadata>
  <g
     transform="translate(-67.18918,-122.01891)"
     inkscape:label="Calque 1"
     inkscape:groupmode="layer"
     id="layer1">
    <path
       id="path24"
       style="opacity:1;fill:#002654;fill-opacity:1;stroke:none;stroke-width:0.525058px;stroke-linecap:butt;stroke-linejoin:miter;stroke-opacity:1"
       d="M 67.18918,122.53679 V 149.927 l 38.14263,0.001 c 6.54483,1.6e-4 11.85044,4.79523 11.85074,10.71037 -3e-4,5.91515 -5.30591,10.71022 -11.85074,10.71038 l -38.14263,0.001 v 54.53938 h 29.964231 v -32.70028 l 20.140919,32.70028 h 35.96446 l -26.88567,-36.34595 c 16.39502,-7.78999 21.20745,-19.20126 21.20745,-32.47877 0,-22.57284 -17.94831,-34.52772 -41.79959,-34.52772 z"
       sodipodi:nodetypes="ccccccccccccssc" />
    <path
       id="path42"
       style="opacity:1;fill:#002654;fill-opacity:1;stroke:none;stroke-width:0.525058px;stroke-linecap:butt;stroke-linejoin:miter;stroke-opacity:1"
       d="m 219.58025,122.53679 -67.04444,103.35244 h 33.9035 l 68.25804,-103.35244 z"
       sodipodi:nodetypes="ccccc" />
    <path
       id="path148"
       d="m 226.50283,182.73163 -17.12389,25.78024 11.41448,17.37736 h 33.90422 z"
       style="opacity:1;fill:#02f3e9;fill-opacity:1;stroke:none;stroke-width:0.525058px;stroke-linecap:butt;stroke-linejoin:miter;stroke-opacity:1" />
    <path
       id="path42-9"
       d="m 152.53581,122.53679 27.61999,41.84717 16.99502,-26.12787 -10.39596,-15.7193 z"
       style="opacity:1;fill:#02f3e9;fill-opacity:1;stroke:none;stroke-width:0.525058px;stroke-linecap:butt;stroke-linejoin:miter;stroke-opacity:1" />
    <path
       id="path2333"
       style="opacity:1;fill:#002654;fill-opacity:1;fill-rule:nonzero;stroke:none;stroke-width:1.86111"
       d="m 315.30566,122.53678 c -17.76804,0 -32.1803,14.40329 -32.1803,32.17691 0,17.77179 14.41226,32.17307 32.1803,32.17307 5.46738,0 10.61518,-1.36512 15.12369,-3.77042 4.51426,2.41205 9.65597,3.77042 15.11017,3.77042 17.78481,0 32.19189,-14.40128 32.19189,-32.17307 0,-17.77362 -14.40708,-32.17691 -32.19189,-32.17691 -5.45442,0 -10.59627,1.3698 -15.11067,3.77092 -4.5084,-2.4055 -9.65595,-3.77092 -15.12319,-3.77092 z m -0.48771,1.93966 v 0.004 c -4.06787,3.58118 -7.37202,7.92109 -9.74944,12.66307 h -6.09227 c -1.86394,-1.01641 -3.63909,-2.20787 -5.29714,-3.56755 5.38477,-5.50856 12.8561,-8.96782 21.13885,-9.09887 z m 1.066,0.001 c 8.24303,0.15459 15.67667,3.60811 21.04006,9.09552 -2.15337,1.76819 -4.50193,3.25279 -6.98765,4.4345 -1.09876,-1.16169 -2.65274,-1.88858 -4.37766,-1.88858 -0.15102,0 -0.30037,0.008 -0.44863,0.0179 -2.33019,-4.3509 -5.44951,-8.33276 -9.22612,-11.65975 z m 28.01952,0.0379 0.25687,2.47073 3.63501,-0.0159 0.24046,-2.39603 c 1.25877,0.10299 2.49611,0.28122 3.70634,0.53299 l -0.38262,2.4235 3.51936,0.93585 0.84142,-2.24039 c 1.18074,0.42135 2.32693,0.91467 3.43455,1.4732 l -0.98406,2.22642 3.15456,1.78884 1.37006,-1.91512 c 1.03077,0.71033 2.0161,1.48179 2.9488,2.31124 l -1.5026,1.86884 2.57726,2.55699 1.80472,-1.49343 c 0.81131,0.94645 1.56497,1.94343 2.25581,2.98592 l -1.9257,1.41294 1.83895,3.12852 2.12089,-0.96814 c 0.53807,1.11686 1.00942,2.27166 1.4091,3.45963 l -2.21053,0.85826 0.96961,3.50827 2.28038,-0.38742 c 0.22957,1.20981 0.3866,2.44483 0.46747,3.70102 l -2.34401,0.26362 0.0332,3.63261 2.29919,0.2183 c -0.0833,1.19211 -0.23318,2.36565 -0.45058,3.51551 l -2.3469,-0.33734 -0.87515,3.52516 2.18159,0.78647 c -0.39929,1.18977 -0.87055,2.34602 -1.4086,3.46443 l -2.18931,-0.93633 -1.75318,3.1825 1.91654,1.3262 c -0.69049,1.04334 -1.44515,2.04014 -2.25628,2.98735 l -1.87846,-1.47707 -2.51604,2.62592 1.51751,1.78499 c -0.92959,0.82749 -1.90954,1.59967 -2.93673,2.30882 l -1.4544,-1.92764 -3.11359,1.87993 1.02454,2.15268 c -1.10748,0.55938 -2.25339,1.05441 -3.43409,1.47656 l -0.91994,-2.25966 -3.49335,1.01826 0.43563,2.36087 c -1.2093,0.25246 -2.44505,0.43366 -3.70297,0.53731 l -0.30985,-2.44953 -3.63502,0.0964 -0.18357,2.41628 c -1.26506,-0.0663 -2.50926,-0.21046 -3.7285,-0.42748 l 0.33876,-2.48372 -3.53236,-0.84142 -0.8231,2.31991 c -1.29951,-0.42218 -2.55957,-0.93128 -3.77526,-1.51801 2.39314,-1.50562 4.57149,-3.31998 6.48502,-5.3834 2.25704,0.72053 4.6061,1.09202 7.00789,1.09202 5.60122,0 10.88904,-1.98687 15.06297,-5.62578 h 7.63677 l -2.0428,-7.26716 c 1.51219,-3.09479 2.31074,-6.51753 2.31074,-10.06561 0,-6.13607 -2.38407,-11.90579 -6.7279,-16.22916 -4.33266,-4.33826 -10.09811,-6.73513 -16.23978,-6.73513 -2.39343,0 -4.74968,0.37398 -7.00646,1.0973 -1.91262,-2.06302 -4.0897,-3.87728 -6.48163,-5.3829 1.20749,-0.58284 2.45906,-1.08883 3.74925,-1.50934 l 0.90019,2.35363 3.50441,-0.94356 -0.39612,-2.41967 c 1.21801,-0.21815 2.46179,-0.36147 3.72563,-0.4289 z m -28.02434,1.39607 c 3.2801,3.02527 6.01964,6.56722 8.12495,10.4121 -2.21561,0.59407 -3.93033,2.4256 -4.35884,4.70677 -1.24424,0.15955 -2.50141,0.25154 -3.76611,0.27277 z m -1.06118,0.008 v 15.38632 c -0.40638,-0.006 -0.8121,-0.0199 -1.2168,-0.0399 v -4.12175 h -7.34088 c 2.15539,-4.1585 5.0464,-7.98707 8.55768,-11.22458 z m 31.09023,6.90139 c 5.85695,0 11.35649,2.27426 15.49187,6.40407 4.13354,4.13725 6.41709,9.64603 6.41709,15.48991 0,2.99986 -0.60643,5.85981 -1.70212,8.46471 l -7.23148,-25.7264 h -14.35455 l -0.72143,2.33146 c -1.14663,-2.18336 -2.53511,-4.21976 -4.13235,-6.07154 2.01374,-0.59248 4.1095,-0.892 6.23297,-0.892 z m -52.95867,1.52669 c 1.24365,1.0256 2.55192,1.95826 3.91309,2.7965 h -6.05277 v 17.02722 h -5.74094 c 0.13455,-7.63092 3.09473,-14.57324 7.88062,-19.82372 z m 44.70652,4.6e-4 c 2.18288,2.39563 3.98414,5.14429 5.31205,8.14904 l -3.61335,11.6742 h -8.38035 v -4.688 h -1.452 c -0.11688,-0.8214 -0.26018,-1.63989 -0.43033,-2.45436 1.51098,-1.09551 2.49484,-2.87334 2.49484,-4.88026 0,-1.21187 -0.36008,-2.34052 -0.97731,-3.2866 2.50514,-1.21099 4.87249,-2.72258 7.04645,-4.51402 z m -18.11537,7.75724 c -10e-5,0.0139 -9.3e-4,0.0288 -9.3e-4,0.0435 0,3.32582 2.70065,6.02627 6.01901,6.02627 0.92012,0 1.79134,-0.20722 2.57146,-0.57589 0.12462,0.62598 0.23295,1.25421 0.32529,1.88426 h -8.46132 v 4.688 h -4.115 v -11.81155 c 1.22922,-0.0198 2.45078,-0.10795 3.66153,-0.25445 z m -5.93951,0.21589 c 0.40484,0.0199 0.81038,0.0337 1.2168,0.0397 v 11.81058 h -2.38734 v -3.12277 h -9.44345 c -0.0893,0 -0.17682,0.0689 -0.17682,0.0689 0,0 0.0742,-0.0689 0.0742,-0.16193 v -4.38102 c 0,-0.0836 -0.0337,-0.13158 -0.0583,-0.15995 9.1e-4,-0.006 0.002,-0.01 0.004,-0.0139 0.0333,0.0179 0.10438,0.0554 0.17919,0.0554 h 10.59185 z m 37.74344,8.59337 c 0,0 0.0139,0.43345 0.0651,0.65493 0.18991,0.79653 0.9788,4.19667 1.87026,7.97844 0.0298,0.21032 0.0877,0.27747 0.10081,0.31468 0.0222,0.054 0.1022,0.16967 0.1022,0.16967 0,0 -0.11529,-0.10081 -0.23611,-0.0877 h -0.21976 -3.49912 -0.21542 c -0.12283,-0.0119 -0.2366,0.0877 -0.2366,0.0877 0,0 0.0742,-0.11549 0.1022,-0.16967 0.01,-0.0373 0.0577,-0.10438 0.10795,-0.31468 0.96035,-3.87111 1.82973,-7.3511 2.00281,-8.00064 0.0429,-0.18992 0.056,-0.63273 0.056,-0.63273 z m -66.2757,4.3121 h 5.74094 v 16.82097 h 6.4113 c -1.49401,0.89621 -2.92634,1.90537 -4.28174,3.02541 -4.78631,-5.25484 -7.74375,-12.20378 -7.8705,-19.84638 z m 27.36172,0 h 2.38734 v 11.81974 c -3.48723,0.0482 -6.92184,0.61309 -10.19711,1.65678 -0.71372,-1.78152 -1.29368,-3.60728 -1.73634,-5.45853 v -3.41921 c 0,-0.12661 -0.0871,-0.20097 -0.0871,-0.20097 0,0 0.11748,0.0891 0.20675,0.0891 h 9.42658 z m 3.44852,0 h 4.11502 v 12.13333 c -1.35875,-0.18257 -2.73212,-0.28975 -4.11502,-0.31228 z m 15.09525,0 h 8.05363 l -5.20603,16.82097 h 6.26189 c -0.74293,1.06084 -1.55142,2.07241 -2.4211,3.02734 -2.06982,-1.70927 -4.31571,-3.16234 -6.68839,-4.34487 z m -28.08988,11.82746 c 0.22667,0.66716 0.46879,1.32998 0.73058,1.98642 -0.2446,0.0861 -0.48798,0.17483 -0.73058,0.26649 z m 52.49462,0.51178 c 0,0 -0.0798,0.11153 -0.11331,0.16907 -0.004,0.0464 -0.0429,0.0915 0.0222,0.33155 0.53412,2.30778 0.90837,3.98103 0.90837,3.98103 h 3.08759 c -3.70232,2.85951 -8.34233,4.56318 -13.37581,4.56318 -2.1293,0 -4.22008,-0.29817 -6.23539,-0.89345 0.996,-1.15435 1.91009,-2.38121 2.73627,-3.66973 h 3.78731 c 0,0 0.79837,-3.12886 1.01055,-3.97381 0.0633,-0.24752 0.0278,-0.29223 0.0139,-0.33877 -0.0298,-0.0577 -0.1022,-0.15994 -0.1022,-0.15994 0,0 0.11569,0.0895 0.23468,0.0895 h 0.21397 7.35295 0.21589 c 0.12463,0 0.24193,-0.0988 0.24193,-0.0988 z m -40.56117,0.54118 v 15.39354 c -4.22913,-3.90153 -7.56021,-8.65661 -9.78704,-13.81386 3.14479,-0.99322 6.43989,-1.53195 9.78704,-1.57968 z m 1.06118,9.4e-4 c 1.38342,0.0234 2.75669,0.13454 4.11502,0.32287 v 3.61815 h 4.56074 c -2.16859,4.24753 -5.10073,8.15869 -8.67576,11.45783 z m -11.8578,1.91364 c 2.40942,5.6166 6.09338,10.77018 10.79662,14.90683 v 0.0236 c -8.2867,-0.13118 -15.76158,-3.5915 -21.14702,-9.1028 1.78088,-1.46558 3.69622,-2.73625 5.71252,-3.80178 h 3.50105 v -1.60234 c 0.37663,-0.14725 0.75513,-0.28979 1.13683,-0.42359 z m 26.95305,1.89343 c 2.10779,1.09114 4.10812,2.40482 5.96313,3.93043 -5.36552,5.49457 -12.8066,8.95166 -21.05838,9.10514 v -0.0159 c 4.13116,-3.63476 7.47642,-8.05549 9.86269,-12.88572 h 5.23256 z" />
    <path
       id="path222"
       style="opacity:1;fill:#02f3e9;fill-opacity:1;stroke:none;stroke-width:1.84485;stroke-linecap:square;stroke-dashoffset:131.528;paint-order:stroke fill markers"
       d="m 463.0382,122.01891 a 17.051586,17.433598 0 0 0 -17.03875,17.43358 17.051586,17.433598 0 0 0 17.05109,17.43359 17.051586,17.433598 0 0 0 17.05206,-17.43359 17.051586,17.433598 0 0 0 -17.05206,-17.43358 17.051586,17.433598 0 0 0 -0.0123,0 z m 0.0123,6.18482 a 10.427949,11.179837 0 0 1 10.42834,11.18005 10.427949,11.179837 0 0 1 -10.42834,11.18006 10.427949,11.179837 0 0 1 -10.42736,-11.18006 10.427949,11.179837 0 0 1 10.42736,-11.18005 z" />
    <path
       id="path168"
       style="font-style:normal;font-variant:normal;font-weight:bold;font-stretch:normal;font-size:23.3477px;line-height:1.25;font-family:'Product Sans';-inkscape-font-specification:'Product Sans Bold';text-align:center;text-anchor:middle;opacity:1;fill:#02f3e9;fill-opacity:1;stroke-width:1.16533"
       d="m 514.58861,122.69596 h 6.29283 v 27.40875 h 14.12387 v 5.96651 h -20.4167 z" />
    <path
       id="path170"
       style="font-style:normal;font-variant:normal;font-weight:bold;font-stretch:normal;font-size:23.3477px;line-height:1.25;font-family:'Product Sans';-inkscape-font-specification:'Product Sans Bold';text-align:center;text-anchor:middle;opacity:1;fill:#02f3e9;fill-opacity:1;stroke-width:1.14101"
       d="m 539.84854,122.69574 v 33.37609 h 10.15863 c 8.65412,0 17.13607,-5.76442 17.10136,-16.68805 0.0347,-10.92363 -8.44724,-16.68804 -17.10136,-16.68804 z m 6.3048,5.96741 h 3.53081 c 6.98501,0 10.72642,5.09091 10.80371,10.72063 -0.0773,5.62972 -3.8187,10.72063 -10.80371,10.72063 h -3.53081 z"
       sodipodi:nodetypes="ccscsccscscc" />
    <path
       sodipodi:nodetypes="cccccccccccccsccc"
       id="path206"
       style="font-style:normal;font-variant:normal;font-weight:bold;font-stretch:normal;font-size:23.4888px;line-height:1.25;font-family:'Product Sans';-inkscape-font-specification:'Product Sans Bold';text-align:center;text-anchor:middle;opacity:1;fill:#02f3e9;fill-opacity:1;stroke-width:1.16533"
       d="m 485.44754,122.69574 v 33.37506 h 6.29251 0.48505 v -12.25888 l 9.67872,12.25888 h 8.60807 l -10.78522,-12.49578 c 5.7988,-1.54631 8.84088,-4.8295 8.84088,-10.34427 0,-6.31927 -5.01315,-10.4944 -11.37387,-10.53501 z m 6.77756,6.21046 h 4.18771 c 2.60534,-0.0721 5.54436,1.4599 5.54436,4.52426 0,3.56664 -2.56775,5.16873 -4.98806,5.19514 h -4.74401 z" />
    <path
       id="path242"
       style="opacity:1;fill:#02f3e9;fill-opacity:1;stroke:none;stroke-width:0.523212px;stroke-linecap:butt;stroke-linejoin:miter;stroke-opacity:1"
       d="m 396.34962,122.69574 9.92036,33.37507 h 6.93876 l 7.34201,-24.21014 7.34202,24.21014 h 6.93875 l 9.92036,-33.37507 h -6.77176 l -6.60679,24.7034 h -0.48877 l -7.19844,-24.7034 h -6.27074 l -7.19842,24.7034 h -0.48879 l -6.60679,-24.7034 z"
       sodipodi:nodetypes="cccccccccccccccc" />
    <path
       id="path274"
       style="font-style:normal;font-variant:normal;font-weight:bold;font-stretch:normal;font-size:10.5833px;line-height:1.25;font-family:'Product Sans';-inkscape-font-specification:'Product Sans Bold';text-align:center;text-anchor:middle;opacity:1;fill:#02f3e9;fill-opacity:1;stroke-width:0.71765"
       d="m 419.74139,166.98115 -7.80717,20.32653 h 4.32455 l 1.80899,-5.1429 h 7.81846 l 1.80899,5.1429 h 4.32455 l -7.80819,-20.32653 z m 2.11869,4.40044 h 0.23279 l 2.52992,7.19187 h -5.29263 z" />
    <path
       id="path276"
       style="font-style:normal;font-variant:normal;font-weight:bold;font-stretch:normal;font-size:10.5833px;line-height:1.25;font-family:'Product Sans';-inkscape-font-specification:'Product Sans Bold';text-align:center;text-anchor:middle;opacity:1;fill:#02f3e9;fill-opacity:1;stroke-width:0.709751"
       d="m 434.41906,166.98073 h 3.83266 v 16.69333 h 8.60217 v 3.63391 h -12.43483 z" />
    <path
       id="path278"
       style="font-style:normal;font-variant:normal;font-weight:bold;font-stretch:normal;font-size:10.5833px;line-height:1.25;font-family:'Product Sans';-inkscape-font-specification:'Product Sans Bold';text-align:center;text-anchor:middle;opacity:1;fill:#02f3e9;fill-opacity:1;stroke-width:0.709751"
       d="m 449.65442,166.98073 h 3.83267 v 16.69333 h 8.60216 v 3.63391 h -12.43483 z" />
    <path
       d="m 396.50683,166.98093 v 20.32696 h 3.83244 0.29543 v -7.46623 l 5.89477,7.46623 h 5.24271 l -6.56869,-7.61052 c 0.39727,-0.0748 0.78325,-0.17483 1.15423,-0.30977 0.85167,-0.32177 1.5902,-0.76694 2.21475,-1.33474 0.62457,-0.5678 1.11629,-1.23954 1.47589,-2.01553 0.35959,-0.7949 0.53962,-1.67486 0.53962,-2.64009 0,-0.94631 -0.17999,-1.80729 -0.53962,-2.58326 -0.3596,-0.7949 -0.85132,-1.47647 -1.47589,-2.04427 -0.62455,-0.56778 -1.36308,-1.00315 -2.21475,-1.30598 -0.83277,-0.32174 -1.73171,-0.4828 -2.69694,-0.4828 z m 4.12787,3.78246 h 2.88931 c 1.58676,-0.0438 3.03795,0.78603 3.03795,2.88807 0,2.17224 -1.56388,2.89756 -3.03795,2.91364 h -2.88931 z"
       style="font-style:normal;font-variant:normal;font-weight:bold;font-stretch:normal;font-size:23.4888px;line-height:1.25;font-family:'Product Sans';-inkscape-font-specification:'Product Sans Bold';text-align:center;text-anchor:middle;opacity:1;fill:#02f3e9;fill-opacity:1;stroke-width:0.709737"
       id="path206-9" />
    <path
       id="rect325"
       style="opacity:1;fill:#02f3e9;fill-opacity:1;stroke:none;stroke-width:0.519716;stroke-linecap:square;stroke-dashoffset:131.528;paint-order:stroke fill markers"
       d="m 459.72786,166.98115 7.70975,12.07942 v 8.24711 h 3.8354 v -8.24711 l 7.70975,-12.07942 h -4.57888 l -4.72038,7.96099 h -0.65533 l -4.72143,-7.96099 z"
       sodipodi:nodetypes="ccccccccccc" />
    <path
       id="path206-9-9"
       style="font-style:normal;font-variant:normal;font-weight:bold;font-stretch:normal;font-size:23.4888px;line-height:1.25;font-family:'Product Sans';-inkscape-font-specification:'Product Sans Bold';text-align:center;text-anchor:middle;opacity:1;fill:#02f3e9;fill-opacity:1;stroke-width:0.709701"
       d="m 497.83339,166.98093 v 20.32592 h 3.83223 0.29541 v -7.46584 l 5.89448,7.46584 h 5.24244 l -6.56834,-7.61011 c 0.39725,-0.0748 0.78321,-0.17484 1.15416,-0.30978 0.85164,-0.32174 1.59012,-0.7669 2.21464,-1.33466 0.62455,-0.56777 1.11622,-1.23948 1.47581,-2.01543 0.35957,-0.79486 0.5396,-1.67477 0.5396,-2.63994 0,-0.94628 -0.17999,-1.80722 -0.5396,-2.58315 -0.35959,-0.79486 -0.85126,-1.47639 -1.47581,-2.04417 -0.62452,-0.56774 -1.363,-1.00309 -2.21464,-1.3059 -0.83272,-0.32172 -1.73163,-0.48278 -2.6968,-0.48278 z m 4.12764,3.78226 h 2.88917 c 1.58669,-0.0439 3.0378,0.78599 3.0378,2.88793 0,2.17212 -1.56381,2.89743 -3.0378,2.9135 h -2.88917 z" />
    <path
       id="path222-0"
       style="opacity:1;fill:#02f3e9;fill-opacity:1;stroke:none;stroke-width:1.16318;stroke-linecap:square;stroke-dashoffset:131.528;paint-order:stroke fill markers"
       d="m 489.49727,166.52685 c -6.89985,0 -11.12106,4.75628 -11.12158,10.61705 -1.1e-4,5.86386 4.32601,10.61759 11.12877,10.61808 1.70791,-1e-4 3.39287,-0.3752 4.92447,-1.09626 v -4.56129 c -1.40044,1.20738 -3.06393,1.80684 -4.92447,1.80678 -3.75832,-5.3e-4 -6.80487,-3.04849 -6.80529,-6.80833 -1.5e-4,-3.76024 3.04655,-6.80876 6.80529,-6.80935 1.86054,-7e-5 3.42674,0.46649 4.92447,1.74746 v -4.4189 c -1.51437,-0.69262 -3.27505,-1.09524 -4.93166,-1.09524 z"
       sodipodi:nodetypes="ccccccccccc" />
    <path
       id="path222-0-7"
       style="opacity:1;fill:#02f3e9;fill-opacity:1;stroke:none;stroke-width:1.1236;stroke-linecap:square;stroke-dashoffset:131.528;paint-order:stroke fill markers"
       d="m 524.78517,166.52644 a 10.385266,10.61793 0 0 0 -10.37744,10.61793 10.385266,10.61793 0 0 0 10.38496,10.61792 10.385266,10.61793 0 0 0 10.38557,-10.61792 10.385266,10.61793 0 0 0 -10.38557,-10.61793 10.385266,10.61793 0 0 0 -0.008,0 z m 0.008,3.76685 a 6.351141,6.8090782 0 0 1 6.35139,6.80922 6.351141,6.8090782 0 0 1 -6.35139,6.80921 6.351141,6.8090782 0 0 1 -6.35077,-6.80921 6.351141,6.8090782 0 0 1 6.35077,-6.80922 z" />
    <path
       style="opacity:1;fill:#02f3e9;fill-opacity:1;stroke:none;stroke-width:0.525058px;stroke-linecap:butt;stroke-linejoin:miter;stroke-opacity:1"
       d="m 537.56655,181.68617 -2.8e-4,4.1304 c 1.40249,0.91518 3.4684,2.0072 6.37334,2.0072 3.74406,0 7.28486,-1.9625 7.28486,-6.24432 0,-3.20523 -2.12198,-4.83755 -4.56316,-5.93608 -2.06969,-0.93133 -4.895,-1.84727 -4.895,-3.25642 0,-1.76954 1.99436,-2.29506 3.45562,-2.29506 1.56337,0 3.09816,0.52818 4.80471,1.38018 v -3.75744 c -1.8098,-0.83319 -3.2668,-1.25064 -5.29017,-1.25064 -4.12401,0 -7.16992,2.62205 -7.16992,5.67351 0,3.26694 1.98523,4.60118 5.19134,6.11111 1.61241,0.75936 4.24967,1.66426 4.24967,3.36366 0,1.8606 -2.17125,2.48101 -3.67564,2.48101 -2.10102,0 -4.27277,-1.36109 -5.76537,-2.40711 z"
       id="path416"
       sodipodi:nodetypes="ccccscsccccsccc" />
    <path
       sodipodi:nodetypes="ccccscsccccsccc"
       id="path416-3"
       d="m 553.53126,181.68617 -2.8e-4,4.1304 c 1.40249,0.91518 3.46841,2.0072 6.37336,2.0072 3.74406,0 7.28484,-1.9625 7.28484,-6.24432 0,-3.20523 -2.12196,-4.83755 -4.56314,-5.93608 -2.0697,-0.93133 -4.89502,-1.84727 -4.89502,-3.25642 0,-1.76954 1.99438,-2.29506 3.45562,-2.29506 1.56339,0 3.09816,0.52818 4.80471,1.38018 v -3.75744 c -1.80978,-0.83319 -3.2668,-1.25064 -5.29017,-1.25064 -4.12401,0 -7.16992,2.62205 -7.16992,5.67351 0,3.26694 1.98523,4.60118 5.19134,6.11111 1.61243,0.75936 4.24969,1.66426 4.24969,3.36366 0,1.8606 -2.17127,2.48101 -3.67564,2.48101 -2.10104,0 -4.27279,-1.36109 -5.76539,-2.40711 z"
       style="opacity:1;fill:#02f3e9;fill-opacity:1;stroke:none;stroke-width:0.525058px;stroke-linecap:butt;stroke-linejoin:miter;stroke-opacity:1" />
    <path
       sodipodi:nodetypes="ccccccccccc"
       d="m 297.48741,198.17034 c -9.00659,0 -14.51668,6.20852 -14.51736,13.85877 -1.6e-4,7.65427 5.64688,13.85946 14.52672,13.86011 2.22942,-1.4e-4 4.42883,-0.48976 6.42809,-1.43098 v -5.954 c -1.82804,1.57605 -3.99945,2.35853 -6.42809,2.35845 -4.90583,-6.7e-4 -8.8826,-3.97928 -8.88311,-8.88713 -2.2e-4,-4.90837 3.97672,-8.88766 8.88311,-8.88845 2.42864,-1e-4 4.47305,0.60891 6.42809,2.28101 v -5.76811 c -1.97677,-0.90412 -4.27505,-1.42967 -6.43745,-1.42967 z"
       style="opacity:1;fill:#002654;fill-opacity:1;stroke:none;stroke-width:1.51833;stroke-linecap:square;stroke-dashoffset:131.528;paint-order:stroke fill markers"
       id="path222-0-9" />
    <path
       id="rect463"
       style="opacity:1;fill:#002654;fill-opacity:1;stroke:none;stroke-width:0.80261;stroke-linecap:square;stroke-dashoffset:131.528;paint-order:stroke fill markers"
       d="m 308.29976,198.55235 v 26.84156 h 5.227 v -10.86215 h 11.52668 v 10.86215 h 5.22699 v -26.84156 h -5.22699 v 10.9206 h -11.52668 v -10.9206 z" />
    <path
       d="m 343.29765,198.55213 -10.3097,26.84199 h 5.71074 l 2.38887,-6.79141 h 10.32456 l 2.38885,6.79141 h 5.71075 l -10.31106,-26.84199 z m 2.79779,5.81094 h 0.30743 l 3.34086,9.49715 h -6.98916 z"
       style="font-style:normal;font-variant:normal;font-weight:bold;font-stretch:normal;font-size:10.5833px;line-height:1.25;font-family:'Product Sans';-inkscape-font-specification:'Product Sans Bold';text-align:center;text-anchor:middle;opacity:1;fill:#002654;fill-opacity:1;stroke-width:0.947683"
       id="path274-5" />
    <path
       id="path516"
       style="opacity:1;fill:#002654;fill-opacity:1;stroke:none;stroke-width:0.523546px;stroke-linecap:butt;stroke-linejoin:miter;stroke-opacity:1"
       d="m 364.45227,198.55235 -3.90713,26.84157 h 5.22752 l 2.39198,-19.06311 6.1992,19.03336 h 2.21864 2.21866 l 6.1992,-19.03336 2.39198,19.06311 h 5.22752 l -3.90713,-26.84157 H 382.59 l -6.00752,18.50934 -6.00749,-18.50934 z" />
    <path
       id="path206-6"
       style="font-style:normal;font-variant:normal;font-weight:bold;font-stretch:normal;font-size:23.4888px;line-height:1.25;font-family:'Product Sans';-inkscape-font-specification:'Product Sans Bold';text-align:center;text-anchor:middle;opacity:1;fill:#002654;fill-opacity:1;stroke-width:0.977596"
       d="m 396.94954,198.55235 v 26.84156 h 5.45056 v -7.8687 h 2.8468 c 5.13068,0 10.29607,-3.44663 10.29607,-9.7546 0,-5.79659 -4.96312,-9.21826 -9.77101,-9.21826 z m 5.45056,4.99318 h 3.1883 c 2.25973,-0.0681 4.63835,1.59331 4.63835,4.21893 0,2.93531 -2.06522,4.53424 -4.01177,4.55734 h -3.81488 z" />
    <rect
       style="opacity:1;fill:#002654;fill-opacity:1;stroke:none;stroke-width:0.815621;stroke-linecap:square;stroke-dashoffset:131.528;paint-order:stroke fill markers"
       id="rect561"
       width="5.2270002"
       height="26.841566"
       x="419.3768"
       y="198.55234" />
    <path
       d="m 442.54818,198.1701 a 13.555874,13.859571 0 0 0 -13.54566,13.85954 13.555874,13.859571 0 0 0 13.55548,13.85958 13.555874,13.859571 0 0 0 13.55626,-13.85958 13.555874,13.859571 0 0 0 -13.55626,-13.85954 13.555874,13.859571 0 0 0 -0.01,0 z m 0.01,4.91685 a 8.2901363,8.8878811 0 0 1 8.29048,8.88806 8.2901363,8.8878811 0 0 1 -8.29048,8.88806 8.2901363,8.8878811 0 0 1 -8.28964,-8.88806 8.2901363,8.8878811 0 0 1 8.28964,-8.88806 z"
       style="opacity:1;fill:#002654;fill-opacity:1;stroke:none;stroke-width:1.46664;stroke-linecap:square;stroke-dashoffset:131.528;paint-order:stroke fill markers"
       id="path222-0-7-0" />
    <path
       d="m 460.38623,198.55235 v 26.84156 h 5.22701 v -18.16374 l 12.15532,18.16374 h 5.22701 v -26.84156 h -5.22701 v 17.68893 l -12.15532,-17.68893 z"
       style="opacity:1;fill:#002654;fill-opacity:1;stroke-width:0.815621;stroke-linecap:square;stroke-dashoffset:131.528;paint-order:stroke fill markers"
       id="rect65" />
    <path
       sodipodi:nodetypes="ccccscsccccsccc"
       id="path416-4"
       d="m 487.5074,217.9243 -3.6e-4,5.36014 c 1.82004,1.18765 4.50104,2.60478 8.27083,2.60478 4.85878,0 9.45375,-2.54679 9.45375,-8.10342 0,-4.15949 -2.75373,-6.2778 -5.92173,-7.70338 -2.68588,-1.20863 -6.35236,-2.39725 -6.35236,-4.22594 0,-2.29637 2.58813,-2.97838 4.48446,-2.97838 2.02882,0 4.02056,0.68546 6.23519,1.79111 v -4.87613 c -2.34862,-1.08124 -4.23941,-1.62298 -6.86518,-1.62298 -5.35185,0 -9.3046,3.4027 -9.3046,7.36265 0,4.23959 2.57628,5.97107 6.73693,7.93053 2.09246,0.98545 5.51491,2.15977 5.51491,4.36513 0,2.41455 -2.8177,3.21965 -4.76998,3.21965 -2.72655,0 -5.54488,-1.76632 -7.48186,-3.12376 z"
       style="opacity:1;fill:#002654;fill-opacity:1;stroke:none;stroke-width:0.681381px;stroke-linecap:butt;stroke-linejoin:miter;stroke-opacity:1" />
    <path
       d="m 509.45934,198.55235 v 26.84157 h 5.22701 v -10.86216 h 11.52667 v 10.86216 h 5.227 v -26.84157 h -5.227 v 10.92062 h -11.52667 v -10.92062 z"
       style="opacity:1;fill:#002654;fill-opacity:1;stroke:none;stroke-width:0.80261;stroke-linecap:square;stroke-dashoffset:131.528;paint-order:stroke fill markers"
       id="rect463-0" />
    <rect
       y="198.55234"
       x="537.28552"
       height="26.841566"
       width="5.2270002"
       id="rect561-9"
       style="opacity:1;fill:#002654;fill-opacity:1;stroke:none;stroke-width:0.815621;stroke-linecap:square;stroke-dashoffset:131.528;paint-order:stroke fill markers" />
    <path
       d="m 548.49242,198.55233 v 26.84157 h 5.45056 v -7.8687 h 2.84681 c 5.13067,0 10.29606,-3.44663 10.29606,-9.7546 0,-5.79658 -4.96313,-9.21827 -9.77101,-9.21827 z m 5.45056,4.99319 h 3.18829 c 2.25974,-0.0681 4.63837,1.59332 4.63837,4.21893 0,2.93532 -2.06522,4.53425 -4.01177,4.55735 h -3.81489 z"
       style="font-style:normal;font-variant:normal;font-weight:bold;font-stretch:normal;font-size:23.4888px;line-height:1.25;font-family:'Product Sans';-inkscape-font-specification:'Product Sans Bold';text-align:center;text-anchor:middle;opacity:1;fill:#002654;fill-opacity:1;stroke-width:0.977595"
       id="path206-6-2" />
  </g>
</svg>
